<svg width="493" height="404" viewBox="0 0 493 404" fill="none" xmlns="http://www.w3.org/2000/svg">
<mask id="mask0_186_666" style="mask-type:alpha" maskUnits="userSpaceOnUse" x="0" y="0" width="493" height="404">
<path d="M492.308 75.7519V327.305C492.308 344.422 487.073 359.176 478.369 370.906C476.408 373.55 474.269 376.041 471.972 378.37C460.843 389.666 446.039 397.18 429.852 400.055C428.081 400.055 405.719 405.696 349.277 403.402C324.992 402.418 295.933 400.274 258.647 397.376C253.921 397.008 248.727 396.735 243.157 396.546C240.356 396.448 237.459 396.373 234.479 396.315C216.649 395.972 195.828 396.294 174.495 396.879C169.33 397.017 164.129 397.176 158.935 397.344C155.49 397.453 152.049 397.57 148.622 397.687C143.198 397.873 137.808 398.064 132.487 398.258C122.059 398.638 111.907 399.019 102.339 399.35C88.9356 399.812 76.6803 400.18 66.4153 400.318C65.6601 400.327 64.9166 400.337 64.1853 400.344C64.183 400.344 64.183 400.344 64.1804 400.344C28.7358 400.705 0.000244141 367.645 0.000244141 327.305V75.7519C0.000244141 35.417 28.7958 0.345269 64.1804 2.71556C74.6469 3.41766 86.6792 4.78037 99.8527 6.14036C100.277 6.18706 100.706 6.22677 101.133 6.27347C105.14 6.68409 109.248 7.08997 113.444 7.4796C113.871 7.51683 114.297 7.55879 114.726 7.59398C116.614 7.76658 118.518 7.93691 120.443 8.09778C143.716 10.0435 169.462 11.0887 195.763 8.30309C202.645 7.57278 210.234 6.85668 218.368 6.16834C230.412 5.14879 243.648 4.19242 257.543 3.34998C260.929 3.14715 264.353 2.94884 267.806 2.75978C267.806 2.75978 267.806 2.75978 267.811 2.75978C268.003 2.75053 268.197 2.7388 268.391 2.72706C275.182 2.3539 282.088 2.01097 289.063 1.70752C289.794 1.67255 290.526 1.64232 291.259 1.61186H291.262C291.382 1.60261 291.501 1.59787 291.624 1.59313C312.758 0.685493 334.386 0.107022 354.883 0.0136183C382.736 -0.114755 408.503 0.655261 428.122 2.71511C443.413 4.32237 457.498 10.6682 468.552 20.6324C469.782 21.7428 470.976 22.8978 472.129 24.0946C477.709 29.878 482.346 36.6716 485.766 44.3053C487.144 47.3801 488.327 50.5949 489.286 53.931C491.248 60.7229 492.308 68.0343 492.308 75.7519Z" fill="#EEF2F9"/>
</mask>
<g mask="url(#mask0_186_666)">
<path d="M492.308 75.7519V327.305C492.308 344.422 487.073 359.176 478.369 370.906C476.408 373.55 474.269 376.041 471.972 378.37C460.843 389.666 446.039 397.18 429.852 400.055C428.081 400.055 405.719 405.696 349.277 403.402C324.992 402.418 295.933 400.274 258.647 397.376C253.921 397.008 248.727 396.735 243.157 396.546C240.356 396.448 237.459 396.373 234.479 396.315C216.649 395.972 195.828 396.294 174.495 396.879C169.33 397.017 164.129 397.176 158.935 397.344C155.49 397.453 152.049 397.57 148.622 397.687C143.198 397.873 137.808 398.064 132.487 398.258C122.059 398.638 111.907 399.019 102.339 399.35C88.9356 399.812 76.6803 400.18 66.4153 400.318C65.6601 400.327 64.9166 400.337 64.1853 400.344C64.183 400.344 64.183 400.344 64.1804 400.344C28.7358 400.705 0.000244141 367.645 0.000244141 327.305V75.7519C0.000244141 35.417 28.7958 0.345269 64.1804 2.71556C74.6469 3.41766 86.6792 4.78037 99.8527 6.14036C100.277 6.18706 100.706 6.22677 101.133 6.27347C105.14 6.68409 109.248 7.08997 113.444 7.4796C113.871 7.51683 114.297 7.55879 114.726 7.59398C116.614 7.76658 118.518 7.93691 120.443 8.09778C143.716 10.0435 169.462 11.0887 195.763 8.30309C202.645 7.57278 210.234 6.85668 218.368 6.16834C230.412 5.14879 243.648 4.19242 257.543 3.34998C260.929 3.14715 264.353 2.94884 267.806 2.75978C267.806 2.75978 267.806 2.75978 267.811 2.75978C268.003 2.75053 268.197 2.7388 268.391 2.72706C275.182 2.3539 282.088 2.01097 289.063 1.70752C289.794 1.67255 290.526 1.64232 291.259 1.61186H291.262C291.382 1.60261 291.501 1.59787 291.624 1.59313C312.758 0.685493 334.386 0.107022 354.883 0.0136183C382.736 -0.114755 408.503 0.655261 428.122 2.71511C443.413 4.32237 457.498 10.6682 468.552 20.6324C469.782 21.7428 470.976 22.8978 472.129 24.0946C477.709 29.878 482.346 36.6716 485.766 44.3053C487.144 47.3801 488.327 50.5949 489.286 53.931C491.248 60.7229 492.308 68.0343 492.308 75.7519Z" fill="#EEF2F9"/>
<path d="M147.174 50.0952C28.909 71.3132 50.027 434.639 259.945 415.616C469.862 396.593 483.709 208.798 357.512 171.413C231.315 134.028 237.713 33.8512 147.174 50.0952Z" fill="#D8DFEB"/>
<path d="M432.748 40.0153C458.617 42.2373 432.748 99.0173 432.748 99.0173H280.232C280.232 99.0173 282.5 81.5 278.5 68.5C274.5 55.5 273 40.0153 280.232 40.0153C287.464 40.0153 298.007 40.0153 298.007 40.0153H432.748Z" fill="#4D4D4D"/>
<path d="M278.51 68.7103L432.748 65.2493V266.856L275.683 264.957L278.51 68.7103Z" fill="white"/>
<path d="M289.059 97.7412L421.797 95.3032V237.332L286.58 238.597L289.059 97.7412Z" fill="#0E15D7"/>
<path d="M307.328 120.04L402.833 118.388V214.655L305.544 215.513L307.328 120.04Z" stroke="white" stroke-width="2" stroke-miterlimit="10" stroke-linecap="round" stroke-linejoin="round"/>
<path d="M402.833 123.624C405.725 123.624 408.069 121.28 408.069 118.388C408.069 115.497 405.725 113.152 402.833 113.152C399.941 113.152 397.597 115.497 397.597 118.388C397.597 121.28 399.941 123.624 402.833 123.624Z" fill="white"/>
<path d="M402.833 218.212C405.725 218.212 408.069 215.868 408.069 212.976C408.069 210.084 405.725 207.74 402.833 207.74C399.941 207.74 397.597 210.084 397.597 212.976C397.597 215.868 399.941 218.212 402.833 218.212Z" fill="white"/>
<path d="M402.833 168.379C405.725 168.379 408.069 166.035 408.069 163.143C408.069 160.252 405.725 157.907 402.833 157.907C399.941 157.907 397.597 160.252 397.597 163.143C397.597 166.035 399.941 168.379 402.833 168.379Z" fill="white"/>
<path d="M306.499 170.601C309.391 170.601 311.735 168.257 311.735 165.365C311.735 162.474 309.391 160.129 306.499 160.129C303.607 160.129 301.263 162.474 301.263 165.365C301.263 168.257 303.607 170.601 306.499 170.601Z" fill="white"/>
<path d="M355.222 123.624C358.114 123.624 360.458 121.28 360.458 118.388C360.458 115.497 358.114 113.152 355.222 113.152C352.33 113.152 349.986 115.497 349.986 118.388C349.986 121.28 352.33 123.624 355.222 123.624Z" fill="white"/>
<path d="M352.048 220.749C354.94 220.749 357.284 218.405 357.284 215.513C357.284 212.622 354.94 210.277 352.048 210.277C349.156 210.277 346.812 212.622 346.812 215.513C346.812 218.405 349.156 220.749 352.048 220.749Z" fill="white"/>
<path d="M307.61 124.735C310.502 124.735 312.846 122.391 312.846 119.499C312.846 116.608 310.502 114.263 307.61 114.263C304.718 114.263 302.374 116.608 302.374 119.499C302.374 122.391 304.718 124.735 307.61 124.735Z" fill="white"/>
<path d="M305.544 220.749C308.436 220.749 310.78 218.405 310.78 215.513C310.78 212.622 308.436 210.277 305.544 210.277C302.652 210.277 300.308 212.622 300.308 215.513C300.308 218.405 302.652 220.749 305.544 220.749Z" fill="white"/>
<path d="M317.845 141.269V127.885L392.754 126.43V175.345H336.572L317.845 141.269Z" fill="#5056FF"/>
<path d="M317.845 141.269V201.577L392.754 200.783V175.344C380.057 168.248 360.063 176.501 352.047 171.422C344.031 166.345 345.619 141.269 317.845 141.269Z" fill="#B9F73E"/>
<path d="M375.01 152.248C376.245 146.791 372.822 141.366 367.365 140.131C361.908 138.896 356.484 142.319 355.249 147.776C354.014 153.233 357.437 158.658 362.894 159.892C368.351 161.127 373.775 157.705 375.01 152.248Z" fill="#B9F73E"/>
<path d="M432.748 40.0153C427.828 40.0153 432.748 65.2493 432.748 65.2493L278.51 68.7103C278.51 68.7103 270.154 39.7773 282.295 40.0153H432.748Z" fill="#D8DFEB"/>
<path d="M281.108 85.7712C281.108 85.7712 282.852 180.25 238.387 183.544C201.568 186.27 190.404 129.523 190.404 129.523L191.152 116.743L192.82 88.4552C211.69 86.9672 225.279 104.022 232.899 117.259C237.603 125.438 240.037 132.155 240.037 132.155L268.359 81.3422L281.108 85.7712Z" fill="#FFB27D"/>
<path d="M285.5 70.9122C282.541 70.0762 280.914 76.2742 279.077 76.5452C279.077 76.5452 279.318 74.1052 278.294 73.2622C278.294 73.2622 279.484 66.9222 278.61 66.2592C278.61 66.2592 280.899 62.5542 280.206 61.9822C279.513 61.4102 277.495 63.0362 277.495 63.0362C276.35 61.8012 270.168 70.8302 269.867 72.5172C269.566 74.2042 268.359 81.3592 268.359 81.3592L281.107 85.7732C281.107 85.7732 284.649 80.9442 283.986 77.9922L285.5 70.9122Z" fill="#FFB27D"/>
<path d="M232.899 117.259C219.826 136.697 196.664 143.181 196.664 143.181L191.151 116.743L192.819 88.4552C211.69 86.9682 225.279 104.023 232.899 117.259Z" fill="#B9F73E"/>
<path d="M205.233 161.655L247.225 241.149C260.533 265.662 260.643 281.473 256.569 298.741L226.38 427.598L160.719 391.519L192.642 280.303L139.154 161.431L205.233 161.655Z" fill="#0E15D7"/>
<path d="M226.381 427.598L160.72 391.518L155.315 398.417L231.025 440.018L226.381 427.598Z" fill="#1A1A1A"/>
<path d="M130.81 161.655L110.919 431.369H174.495L186.057 161.655H130.81Z" fill="#0E15D7"/>
<path d="M175.705 406.425L182.244 253.887" stroke="white" stroke-width="0.25" stroke-miterlimit="10"/>
<path d="M142.535 268.963L140.339 314.199C132.434 315.846 120.686 314.199 120.686 314.199" stroke="white" stroke-width="0.25" stroke-miterlimit="10"/>
<path d="M146.927 249.749V268.085C137.704 271.049 123.541 268.085 123.541 268.085" stroke="white" stroke-width="0.25" stroke-miterlimit="10"/>
<path d="M127.605 314.819L119.478 427.598" stroke="white" stroke-width="0.25" stroke-miterlimit="10"/>
<path d="M199.743 167.159C201.056 169.862 202.409 172.61 204.494 174.774C206.579 176.938 209.554 178.461 212.533 178.07" stroke="white" stroke-width="0.25" stroke-miterlimit="10"/>
<path d="M134.581 164.284C142.659 168.031 151.823 168.587 160.727 168.561C175.311 168.52 189.891 167.081 204.202 164.27" stroke="white" stroke-width="0.25" stroke-miterlimit="10"/>
<path d="M145.852 170.921C144.102 177.527 138.95 183.133 132.514 185.431" stroke="white" stroke-width="0.25" stroke-miterlimit="10"/>
<path d="M181.256 170.187C183.292 188.34 183.611 206.685 182.205 224.897" stroke="white" stroke-width="0.25" stroke-miterlimit="10" stroke-linecap="round" stroke-linejoin="round"/>
<path d="M185.21 169.186C187.08 181.921 186.426 195.021 183.297 207.507" stroke="white" stroke-width="0.25" stroke-miterlimit="10" stroke-linecap="round" stroke-linejoin="round"/>
<path d="M187.182 240.613C202.893 247.454 219.736 251.685 236.815 253.082" stroke="white" stroke-width="0.25" stroke-miterlimit="10" stroke-linecap="round" stroke-linejoin="round"/>
<path d="M192.309 252.352C203.953 260.069 216.523 266.388 229.662 271.128" stroke="white" stroke-width="0.25" stroke-miterlimit="10" stroke-linecap="round" stroke-linejoin="round"/>
<path d="M192.821 88.4602L163.341 88.8442L126.693 93.0642L130.81 161.655C155.113 164.974 192.764 169.9 205.234 161.655C205.234 161.655 206.871 107.763 192.821 88.4602Z" fill="#B9F73E"/>
<path d="M205.292 161.991L204.95 142.255C196.91 128.54 191.151 110.528 191.151 110.528L146.597 113.712C145.938 131.499 133.939 143.387 133.939 143.387L130.809 161.654C131.165 160.702 182.352 174.267 205.292 161.991Z" fill="#0E15D7"/>
<path d="M175.987 88.6792C181.842 100.171 183.159 112.322 183.159 112.322L190.698 111.81C189.893 99.5132 186.16 88.3652 186.16 88.3652" fill="#0E15D7"/>
<path d="M183.818 119.065L157.218 121.617C157.218 121.617 160.099 136.842 174.081 135.378C188.064 133.915 183.818 119.065 183.818 119.065Z" fill="#0E15D7"/>
<path d="M149.196 89.9232L140.12 91.0942C140.12 91.0942 147.889 100.39 148.538 115.469L155.638 114.737C155.638 114.737 156.369 105.661 149.196 89.9232Z" fill="#0E15D7"/>
<path d="M149.609 90.4252C163.341 108.497 174.923 106.834 172.398 88.7252L163.341 88.8432L149.609 90.4252Z" fill="#FFB27D"/>
<path d="M178.297 80.4512L174.903 69.2502L158.528 70.1042L158.821 79.5562L153.316 93.7682L169.682 97.1082L170.574 86.9272C176.349 89.3482 180.708 87.4632 178.297 80.4512Z" fill="#FFB27D"/>
<path d="M172.474 75.5862C172.474 75.5862 173.55 78.0052 174.016 78.4782L172.69 78.3482C172.69 78.3482 173.256 79.6762 173.614 79.8592C173.614 79.8592 171.439 80.8482 169.717 78.8662C169.26 84.6422 173.329 83.0652 173.329 83.0652" stroke="#1A1A1A" stroke-width="0.25" stroke-miterlimit="10" stroke-linecap="round" stroke-linejoin="round"/>
<path d="M174.698 74.9382C174.755 75.2512 174.614 75.5392 174.385 75.5802C174.156 75.6212 173.924 75.4012 173.868 75.0872C173.811 74.7742 173.952 74.4862 174.181 74.4452C174.411 74.4042 174.642 74.6242 174.698 74.9382Z" fill="#1A1A1A"/>
<path d="M170.524 75.2412C170.58 75.5542 170.44 75.8422 170.211 75.8832C169.982 75.9242 169.75 75.7042 169.694 75.3902C169.638 75.0772 169.778 74.7892 170.007 74.7482C170.236 74.7072 170.467 74.9272 170.524 75.2412Z" fill="#1A1A1A"/>
<path d="M157.984 70.6233C156.8 71.5903 155.831 72.8683 155.427 74.3423C155.363 74.5773 155.312 74.8203 155.335 75.0623C155.357 75.3043 155.461 75.5483 155.656 75.6943C155.851 75.8403 156.143 75.8653 156.335 75.7143C156.225 76.6113 156.304 77.5533 156.712 78.3603C157.119 79.1673 157.904 79.8473 158.799 79.9753C159.212 78.7203 159.242 77.3433 158.885 76.0713C159.657 76.3383 160.565 75.9833 161.052 75.3273C161.54 74.6713 161.637 73.7783 161.429 72.9873C161.811 73.0313 162.221 73.0703 162.561 72.8893C162.901 72.7083 163.097 72.2143 162.841 71.9273C163.575 71.9553 164.327 71.9163 165.01 71.6463C165.693 71.3763 166.303 70.8453 166.52 70.1443L157.984 70.6233Z" fill="#1A1A1A"/>
<path d="M157.543 70.8622L175.987 69.9042C175.987 69.9042 177.521 63.4572 175.543 61.0322C173.564 58.6072 150.968 61.4792 157.543 70.8622Z" fill="#0E15D7"/>
<path d="M171.206 70.1533C171.206 70.1533 188.691 73.4793 189.33 70.6283C189.968 67.7773 171.206 70.1533 171.206 70.1533Z" fill="#0E15D7"/>
<path d="M160.784 76.1832C161.373 77.5592 161.041 79.0212 160.042 79.4492C159.043 79.8772 157.755 79.1092 157.165 77.7332C156.576 76.3572 156.908 74.8952 157.907 74.4672C158.906 74.0392 160.194 74.8072 160.784 76.1832Z" fill="#FFB27D"/>
<path d="M141.477 119.115L179.812 126.972C181.02 127.22 181.842 128.346 181.71 129.572L177.984 164.038C177.836 165.411 176.558 166.374 175.197 166.137L134.019 158.991C132.706 158.763 131.832 157.506 132.077 156.195L138.646 121.018C138.891 119.704 140.167 118.846 141.477 119.115Z" fill="#1A1A1A"/>
<path d="M172.977 158.184C172.842 159.415 171.696 160.277 170.471 160.065L140.527 154.868C139.344 154.663 138.564 153.538 138.783 152.358L141.697 136.763L143.543 126.868C143.762 125.687 144.906 124.918 146.083 125.158L173.966 130.872C175.052 131.096 175.795 132.107 175.675 133.211L174.08 147.938L172.977 158.184Z" fill="white"/>
<path d="M172.977 158.184C172.842 159.415 171.696 160.277 170.471 160.065L140.527 154.868C139.344 154.663 138.564 153.538 138.783 152.358L141.697 136.763C143.43 135.945 145.162 135.135 146.903 134.319C148.581 133.528 150.406 132.719 152.223 133.077C154.24 133.477 155.733 135.242 156.522 137.135C157.32 139.023 157.571 141.088 158.109 143.066C158.416 144.187 158.866 145.355 159.817 146.029C160.889 146.789 162.325 146.737 163.642 146.664C166.224 146.531 168.843 146.477 171.369 147.037C172.293 147.248 173.209 147.543 174.08 147.938L172.977 158.184Z" fill="#B9F73E"/>
<path d="M167.637 140.239C167.265 142.381 165.227 143.817 163.085 143.445C160.943 143.073 159.507 141.035 159.879 138.893C160.251 136.751 162.289 135.315 164.431 135.687C166.574 136.059 168.009 138.097 167.637 140.239Z" fill="#B9F73E"/>
<path d="M174.153 150.652C174.153 150.652 130.422 206.517 98.806 190.124C78.104 179.39 79.222 147.284 91.341 122.901C99.357 106.775 112.18 94.0292 126.69 93.0652L133.94 143.387L131.867 146.208L129.769 149.063L166.883 138.927L174.153 150.652Z" fill="#FFB27D"/>
<path d="M133.94 143.388L131.867 146.209C126.904 144.678 106.383 137.703 91.341 122.901C99.357 106.775 112.18 94.0292 126.69 93.0652L133.94 143.388Z" fill="#B9F73E"/>
<path d="M180.924 137.52C182.602 135.378 181.552 132.542 181.552 132.542L174.285 135.419C173.905 133.309 175.734 128.824 174.033 127.564C174.033 127.564 167.545 134.834 166.883 138.928L174.154 150.651C176.848 150.422 179.599 149.428 179.599 149.428C181.363 147.454 180.145 145.375 180.145 145.375C181.615 143.128 180.555 141.574 180.555 141.574C182.119 139.746 180.924 137.52 180.924 137.52Z" fill="#FFB27D"/>
<path d="M195.633 91.9872C201.605 104.171 204.965 117.627 205.422 131.187" stroke="#1A1A1A" stroke-width="0.25" stroke-miterlimit="10"/>
<path d="M205.429 97.1392C205.561 101.62 205.018 106.121 203.823 110.442" stroke="#1A1A1A" stroke-width="0.25" stroke-miterlimit="10"/>
<path d="M210.448 101.387C209.711 104.636 208.381 107.75 206.543 110.529" stroke="#1A1A1A" stroke-width="0.25" stroke-miterlimit="10"/>
<path d="M126.417 95.8372C129.591 102.323 131.27 109.459 132.097 116.632C132.924 123.805 132.921 131.045 132.875 138.266" stroke="#1A1A1A" stroke-width="0.25" stroke-miterlimit="10"/>
<path d="M239.192 133.813C236.997 137.355 235.544 141.355 234.953 145.48" stroke="#1A1A1A" stroke-width="0.25" stroke-miterlimit="10"/>
<path d="M128.805 149.382C124.682 150.421 120.624 151.715 116.66 153.253" stroke="#1A1A1A" stroke-width="0.25" stroke-miterlimit="10"/>
<path d="M127.879 148.671C121.285 146.867 114.326 147.124 107.494 147.396" stroke="#1A1A1A" stroke-width="0.25" stroke-miterlimit="10"/>
<path d="M71.248 198.405L24 302.143L71.011 320.746L73.653 314.325L76.327 307.841L87.31 281.15L87.788 280L98.641 253.633L99.111 252.488L103.249 242.434L112.693 219.494L71.248 198.405ZM79.518 206.144C82.411 206.682 84.317 209.458 83.779 212.351C83.24 215.251 80.463 217.157 77.57 216.619C74.677 216.081 72.764 213.303 73.303 210.404C73.842 207.511 76.625 205.606 79.518 206.144Z" fill="#4D4D4D"/>
<path d="M71.248 198.405L46.302 309.631L73.654 314.326L96.129 318.184L116.143 210.538L71.248 198.405ZM73.304 210.404C73.842 207.511 76.625 205.606 79.518 206.144C82.411 206.682 84.317 209.458 83.779 212.351C83.24 215.251 80.463 217.157 77.57 216.619C74.678 216.082 72.765 213.304 73.304 210.404Z" fill="white"/>
<path d="M61.005 276.259L54.554 304.107L90.636 310.301L95.763 282.721L61.005 276.259Z" fill="#0E15D7"/>
<path d="M95.986 281.524L101.086 254.091L67.583 247.863L61.28 275.071L95.986 281.524Z" fill="#0E15D7"/>
<path d="M101.309 252.895L105.343 231.196L73.442 222.571L67.858 246.675L101.309 252.895Z" fill="#B9F73E"/>
<path d="M327.065 285.523C351.099 285.523 367.917 310.443 367.917 336.724H355.798C355.798 336.724 359.408 286.18 317.432 286.18L327.065 285.523Z" fill="#1A1A1A"/>
<path d="M272.46 410.723H362.946L370.299 340.946H263.268L272.46 410.723Z" fill="#1A1A1A"/>
<path d="M260 333.184L263.268 355.244L370.299 357.695L373.159 333.184H260Z" fill="#0E15D7"/>
<path d="M299.955 332.365C299.864 333.946 300.061 335.705 301.224 336.779C302.528 337.983 304.524 337.888 306.297 337.805C308.07 337.721 310.128 337.854 311.18 339.284C312.241 340.725 311.743 342.738 312.022 344.505C312.395 346.863 314.38 348.878 316.733 349.286C318.023 349.51 319.342 349.289 320.65 349.245C321.958 349.201 323.365 349.372 324.356 350.228C325.681 351.372 325.851 353.344 325.778 355.093C325.704 356.842 325.511 358.715 326.386 360.231C327.608 362.348 330.93 362.817 332.691 361.122C334.237 359.634 334.355 357.248 334.478 355.106C334.601 352.964 335.002 350.531 336.808 349.373C338.239 348.455 340.078 348.656 341.777 348.679C343.477 348.702 345.448 348.344 346.265 346.854C347.315 344.94 345.82 342.286 347.03 340.469C347.696 339.468 348.962 339.088 349.939 338.386C351.69 337.127 352.442 334.645 351.684 332.627" fill="#5056FF"/>
<path d="M318.282 357.695C318.282 359.989 316.941 361.848 315.286 361.848C313.631 361.848 312.29 359.988 312.29 357.695C312.29 355.401 313.631 353.542 315.286 353.542C316.941 353.542 318.282 355.401 318.282 357.695Z" fill="#5056FF"/>
<path d="M296.358 345.895C297.551 345.895 298.519 344.554 298.519 342.899C298.519 341.245 297.551 339.903 296.358 339.903C295.165 339.903 294.197 341.245 294.197 342.899C294.197 344.554 295.165 345.895 296.358 345.895Z" fill="#5056FF"/>
<path d="M327.065 285.523C298.741 285.523 270.962 302 270.962 342.899H284.988C284.988 342.899 282.536 293.149 327.065 285.523Z" fill="#0E15D7"/>
<path d="M422.115 330.481L346.931 384.898C345.584 385.873 345.282 387.755 346.257 389.103L361.004 409.477C361.979 410.824 363.862 411.126 365.209 410.151L440.393 355.734C441.74 354.759 442.042 352.876 441.067 351.529L426.32 331.155C425.344 329.808 423.462 329.506 422.115 330.481Z" fill="#B9F73E"/>
<path d="M325.758 274.417L322.948 276.451L365.775 334.745C366.22 335.36 367.014 335.614 367.733 335.372L425.246 316.015L439.162 335.242L432.675 339.937L434.709 342.747L442.6 337.035C443.376 336.473 443.55 335.389 442.988 334.613L427.306 312.947C426.861 312.332 426.068 312.078 425.348 312.32L367.836 331.677L325.758 274.417Z" fill="white"/>
<path d="M299.193 242.164C295.945 245.068 295.418 249.957 297.972 253.487L323.293 288.47L337.067 278.5L311.747 243.517C308.791 239.434 302.952 238.805 299.193 242.164Z" fill="#B9F73E"/>
<path d="M338.537 279.472C333.731 283.253 328.924 287.034 324.118 290.814C321.66 292.748 318.817 288.81 321.271 286.88C326.077 283.099 330.884 279.319 335.69 275.538C338.148 273.604 340.991 277.542 338.537 279.472Z" fill="#B9F73E"/>
<path d="M452.537 138.479H448.123V149.968H452.537V138.479Z" stroke="white" stroke-miterlimit="10" stroke-linecap="round" stroke-linejoin="round"/>
<path d="M459.813 135.713H455.399V149.968H459.813V135.713Z" stroke="white" stroke-miterlimit="10" stroke-linecap="round" stroke-linejoin="round"/>
<path d="M467.088 132.394H462.674V149.968H467.088V132.394Z" stroke="white" stroke-miterlimit="10" stroke-linecap="round" stroke-linejoin="round"/>
<path d="M446.969 134.394L456.245 129.032L457.82 131.713L466.841 126.564" stroke="white" stroke-miterlimit="10" stroke-linecap="round" stroke-linejoin="round"/>
<path d="M442.201 197.189C442.277 207.753 433.917 208.817 433.917 208.817C433.917 208.817 442.201 212.465 442.201 220.749C444.328 210.337 451.016 208.589 451.016 208.589C441.973 206.537 442.201 197.189 442.201 197.189Z" fill="#B9F73E"/>
<path d="M253.715 198.497C253.791 209.061 245.431 210.125 245.431 210.125C245.431 210.125 253.715 213.773 253.715 222.057C255.842 211.645 262.53 209.897 262.53 209.897C253.487 207.845 253.715 198.497 253.715 198.497Z" fill="#B9F73E"/>
<path d="M329.925 48.4342C330.001 58.9982 321.641 60.0622 321.641 60.0622C321.641 60.0622 329.925 63.7102 329.925 71.9942C332.052 61.5822 338.74 59.8342 338.74 59.8342C329.697 57.7822 329.925 48.4342 329.925 48.4342Z" fill="#B9F73E"/>
<path d="M426.939 227.681C426.974 232.576 423.101 233.069 423.101 233.069C423.101 233.069 426.94 234.759 426.94 238.598C427.926 233.773 431.025 232.964 431.025 232.964C426.833 232.012 426.939 227.681 426.939 227.681Z" fill="#B9F73E"/>
<path d="M290.526 34.5553C290.561 39.4503 286.688 39.9433 286.688 39.9433C286.688 39.9433 290.527 41.6333 290.527 45.4723C291.513 40.6473 294.612 39.8383 294.612 39.8383C290.42 38.8873 290.526 34.5553 290.526 34.5553Z" fill="#B9F73E"/>
<path d="M373.723 63.7672C373.758 68.6622 369.884 69.1552 369.884 69.1552C369.884 69.1552 373.723 70.8452 373.723 74.6842C374.709 69.8592 377.808 69.0502 377.808 69.0502C373.617 68.0982 373.723 63.7672 373.723 63.7672Z" fill="#B9F73E"/>
<path d="M265.513 232.333C265.548 237.228 261.675 237.721 261.675 237.721C261.675 237.721 265.514 239.411 265.514 243.25C266.5 238.426 269.599 237.616 269.599 237.616C265.408 236.665 265.513 232.333 265.513 232.333Z" fill="#B9F73E"/>
</g>
</svg>
