<svg width="28" height="28" viewBox="0 0 28 28" fill="none" xmlns="http://www.w3.org/2000/svg">
<g clip-path="url(#clip0_488_282)">
<path d="M7.91735 18.0771C7.94798 17.8015 7.96329 17.6636 8.005 17.5348C8.042 17.4205 8.09428 17.3117 8.16041 17.2114C8.23496 17.0984 8.33302 17.0003 8.52914 16.8042L17.3333 8.00004C18.0697 7.26366 19.2636 7.26366 20 8.00004C20.7364 8.73642 20.7364 9.93033 20 10.6667L11.1958 19.4709C10.9997 19.667 10.9016 19.7651 10.7886 19.8396C10.6883 19.9058 10.5795 19.958 10.4652 19.995C10.3364 20.0367 10.1986 20.0521 9.9229 20.0827L7.66666 20.3334L7.91735 18.0771Z" stroke="#4D4D4D" stroke-width="2" stroke-linecap="round" stroke-linejoin="round"/>
</g>
<defs>
<clipPath id="clip0_488_282">
<rect width="16" height="16" fill="white" transform="translate(6 6)"/>
</clipPath>
</defs>
</svg>
