<svg width="116" height="116" viewBox="0 0 116 116" fill="none" xmlns="http://www.w3.org/2000/svg">
<rect width="116" height="116" rx="40" fill="#B9F73E"/>
<path d="M56.1544 35.0782C56.8387 33.4388 59.1613 33.4388 59.8456 35.0782L65.1629 47.8158C65.4364 48.471 66.0368 48.9321 66.7403 49.0273L80.7764 50.927C82.5102 51.1617 83.1282 53.3523 81.7726 54.4585L70.9437 63.2952C70.3531 63.7772 70.0878 64.553 70.2597 65.2957L73.7213 80.2543C74.1349 82.0414 72.1253 83.3961 70.6238 82.3423L59.149 74.2885C58.4594 73.8046 57.5406 73.8046 56.851 74.2885L45.3761 82.3423C43.8746 83.3961 41.8651 82.0415 42.2786 80.2544L45.7399 65.2956C45.9118 64.553 45.6465 63.7772 45.0559 63.2952L34.2273 54.4585C32.8718 53.3523 33.4897 51.1617 35.2235 50.927L49.2597 49.0273C49.9632 48.9321 50.5636 48.471 50.8371 47.8158L56.1544 35.0782Z" stroke="#4D4D4D" stroke-width="6" stroke-miterlimit="3.3292" stroke-linecap="round" stroke-linejoin="round"/>
</svg>
