<svg width="28" height="28" viewBox="0 0 28 28" fill="none" xmlns="http://www.w3.org/2000/svg">
<path d="M26.32 14.2916C26.32 13.3816 26.2383 12.5066 26.0867 11.6666H14V16.6366H20.9067C20.6033 18.235 19.6933 19.5883 18.3283 20.4983V23.73H22.4933C24.92 21.49 26.32 18.2 26.32 14.2916Z" fill="#4285F4"/>
<path d="M14 26.8333C17.465 26.8333 20.37 25.69 22.4933 23.73L18.3283 20.4983C17.185 21.2683 15.7267 21.735 14 21.735C10.6633 21.735 7.82833 19.4833 6.81333 16.45H2.54333V19.7633C4.655 23.9516 8.98333 26.8333 14 26.8333Z" fill="#34A853"/>
<path d="M6.81329 16.4383C6.55663 15.6683 6.40496 14.8516 6.40496 14C6.40496 13.1483 6.55663 12.3316 6.81329 11.5616V8.24829H2.54329C1.66829 9.97496 1.16663 11.9233 1.16663 14C1.16663 16.0766 1.66829 18.025 2.54329 19.7516L5.86829 17.1616L6.81329 16.4383Z" fill="#FBBC05"/>
<path d="M14 6.27663C15.89 6.27663 17.57 6.92996 18.9117 8.18996L22.5867 4.51496C20.3583 2.43829 17.465 1.16663 14 1.16663C8.98333 1.16663 4.655 4.04829 2.54333 8.24829L6.81333 11.5616C7.82833 8.52829 10.6633 6.27663 14 6.27663Z" fill="#EA4335"/>
</svg>
