<svg width="493" height="404" viewBox="0 0 493 404" fill="none" xmlns="http://www.w3.org/2000/svg">
<mask id="mask0_197_274" style="mask-type:alpha" maskUnits="userSpaceOnUse" x="0" y="0" width="493" height="404">
<path d="M492.309 75.7519V327.305C492.309 344.422 487.074 359.176 478.37 370.906C476.409 373.55 474.27 376.041 471.973 378.37C460.844 389.666 446.04 397.18 429.852 400.055C428.082 400.055 405.72 405.696 349.278 403.402C324.993 402.418 295.934 400.274 258.648 397.376C253.922 397.008 248.728 396.735 243.158 396.546C240.357 396.448 237.46 396.373 234.48 396.315C216.65 395.972 195.829 396.294 174.496 396.879C169.331 397.017 164.13 397.176 158.936 397.344C155.491 397.453 152.05 397.57 148.623 397.687C143.199 397.873 137.809 398.064 132.488 398.258C122.06 398.638 111.908 399.019 102.34 399.35C88.9366 399.812 76.6813 400.18 66.4163 400.318C65.661 400.327 64.9176 400.337 64.1862 400.344C64.1839 400.344 64.1839 400.344 64.1814 400.344C28.7368 400.705 0.0012207 367.645 0.0012207 327.305V75.7519C0.0012207 35.417 28.7968 0.345269 64.1814 2.71556C74.6479 3.41766 86.6802 4.78037 99.8537 6.14036C100.278 6.18706 100.707 6.22677 101.134 6.27347C105.141 6.68409 109.248 7.08997 113.445 7.4796C113.872 7.51683 114.298 7.55879 114.727 7.59398C116.615 7.76658 118.519 7.93691 120.444 8.09778C143.717 10.0435 169.463 11.0887 195.764 8.30309C202.646 7.57278 210.235 6.85668 218.369 6.16834C230.413 5.14879 243.649 4.19242 257.544 3.34998C260.93 3.14715 264.354 2.94884 267.807 2.75978C267.807 2.75978 267.807 2.75978 267.812 2.75978C268.004 2.75053 268.198 2.7388 268.392 2.72706C275.183 2.3539 282.089 2.01097 289.064 1.70752C289.795 1.67255 290.527 1.64232 291.26 1.61186H291.263C291.382 1.60261 291.502 1.59787 291.625 1.59313C312.759 0.685493 334.387 0.107022 354.884 0.0136183C382.737 -0.114755 408.504 0.655261 428.123 2.71511C443.414 4.32237 457.499 10.6682 468.553 20.6324C469.783 21.7428 470.977 22.8978 472.13 24.0946C477.71 29.878 482.347 36.6716 485.767 44.3053C487.145 47.3801 488.328 50.5949 489.287 53.931C491.249 60.7229 492.309 68.0343 492.309 75.7519Z" fill="#EEF2F9"/>
</mask>
<g mask="url(#mask0_197_274)">
<path d="M492.309 75.7519V327.305C492.309 344.422 487.074 359.176 478.37 370.906C476.409 373.55 474.27 376.041 471.973 378.37C460.844 389.666 446.04 397.18 429.852 400.055C428.082 400.055 405.72 405.696 349.278 403.402C324.993 402.418 295.934 400.274 258.648 397.376C253.922 397.008 248.728 396.735 243.158 396.546C240.357 396.448 237.46 396.373 234.48 396.315C216.65 395.972 195.829 396.294 174.496 396.879C169.331 397.017 164.13 397.176 158.936 397.344C155.491 397.453 152.05 397.57 148.623 397.687C143.199 397.873 137.809 398.064 132.488 398.258C122.06 398.638 111.908 399.019 102.34 399.35C88.9366 399.812 76.6813 400.18 66.4163 400.318C65.661 400.327 64.9176 400.337 64.1862 400.344C64.1839 400.344 64.1839 400.344 64.1814 400.344C28.7368 400.705 0.0012207 367.645 0.0012207 327.305V75.7519C0.0012207 35.417 28.7968 0.345269 64.1814 2.71556C74.6479 3.41766 86.6802 4.78037 99.8537 6.14036C100.278 6.18706 100.707 6.22677 101.134 6.27347C105.141 6.68409 109.248 7.08997 113.445 7.4796C113.872 7.51683 114.298 7.55879 114.727 7.59398C116.615 7.76658 118.519 7.93691 120.444 8.09778C143.717 10.0435 169.463 11.0887 195.764 8.30309C202.646 7.57278 210.235 6.85668 218.369 6.16834C230.413 5.14879 243.649 4.19242 257.544 3.34998C260.93 3.14715 264.354 2.94884 267.807 2.75978C267.807 2.75978 267.807 2.75978 267.812 2.75978C268.004 2.75053 268.198 2.7388 268.392 2.72706C275.183 2.3539 282.089 2.01097 289.064 1.70752C289.795 1.67255 290.527 1.64232 291.26 1.61186H291.263C291.382 1.60261 291.502 1.59787 291.625 1.59313C312.759 0.685493 334.387 0.107022 354.884 0.0136183C382.737 -0.114755 408.504 0.655261 428.123 2.71511C443.414 4.32237 457.499 10.6682 468.553 20.6324C469.783 21.7428 470.977 22.8978 472.13 24.0946C477.71 29.878 482.347 36.6716 485.767 44.3053C487.145 47.3801 488.328 50.5949 489.287 53.931C491.249 60.7229 492.309 68.0343 492.309 75.7519Z" fill="#EEF2F9"/>
<path d="M464.955 196.486C464.902 193.633 462.574 191.232 459.72 191.232H351.859C348.967 191.232 346.455 193.809 346.455 196.701V455.174C346.455 456.565 347.093 457.899 348.078 458.882C349.063 459.864 350.44 460.414 351.831 460.41L464.565 460.102C465.968 460.098 467.321 459.531 468.303 458.528C469.285 457.526 469.828 456.113 469.801 454.71L464.955 196.486Z" fill="#B9F73E"/>
<g opacity="0.5">
<path d="M382.724 201.51H354.855C354.026 201.51 354.228 202.957 354.228 203.843V208.888C354.228 209.774 354.026 211.252 354.855 211.252H382.724C383.553 211.252 383.993 209.774 383.993 208.888V203.843C383.993 202.957 383.553 201.51 382.724 201.51Z" fill="white"/>
<path d="M420.026 201.51H392.157C391.328 201.51 391.029 202.957 391.029 203.843V208.888C391.029 209.774 391.328 211.252 392.157 211.252H420.026C420.855 211.252 420.794 209.774 420.794 208.888V203.843C420.794 202.957 420.855 201.51 420.026 201.51Z" fill="white"/>
<path d="M457.328 201.51H429.459C428.63 201.51 427.288 202.957 427.288 203.843V208.888C427.288 209.774 428.63 211.252 429.459 211.252H457.328C458.157 211.252 459.219 209.774 459.219 208.888V203.843C459.219 202.957 458.157 201.51 457.328 201.51Z" fill="white"/>
<path d="M382.724 223.158H354.855C354.026 223.158 354.228 222.905 354.228 223.792V228.836C354.228 229.723 354.026 231.275 354.855 231.275H382.724C383.553 231.275 383.993 229.723 383.993 228.836V223.792C383.993 222.905 383.553 223.158 382.724 223.158Z" fill="white"/>
<path d="M420.026 223.158H392.157C391.328 223.158 391.029 222.905 391.029 223.792V228.836C391.029 229.723 391.328 231.275 392.157 231.275H420.026C420.855 231.275 420.794 229.723 420.794 228.836V223.792C420.794 222.905 420.855 223.158 420.026 223.158Z" fill="white"/>
<path d="M457.328 223.158H429.459C428.63 223.158 427.288 222.905 427.288 223.792V228.836C427.288 229.723 428.63 231.275 429.459 231.275H457.328C458.157 231.275 459.219 229.723 459.219 228.836V223.792C459.219 222.905 458.157 223.158 457.328 223.158Z" fill="white"/>
<path d="M382.724 242.099H354.855C354.026 242.099 354.228 242.854 354.228 243.74V248.785C354.228 249.671 354.026 250.758 354.855 250.758H382.724C383.553 250.758 383.993 249.671 383.993 248.785V243.74C383.993 242.854 383.553 242.099 382.724 242.099Z" fill="white"/>
<path d="M420.026 242.099H392.157C391.328 242.099 391.029 242.854 391.029 243.74V248.785C391.029 249.671 391.328 250.758 392.157 250.758H420.026C420.855 250.758 420.794 249.671 420.794 248.785V243.74C420.794 242.854 420.855 242.099 420.026 242.099Z" fill="white"/>
<path d="M457.328 242.099H429.459C428.63 242.099 427.288 242.854 427.288 243.74V248.785C427.288 249.671 428.63 250.758 429.459 250.758H457.328C458.157 250.758 459.219 249.671 459.219 248.785V243.74C459.219 242.854 458.157 242.099 457.328 242.099Z" fill="white"/>
<path d="M382.724 262.665H354.855C354.026 262.665 354.228 262.802 354.228 263.689V268.733C354.228 269.62 354.026 270.783 354.855 270.783H382.724C383.553 270.783 383.993 269.62 383.993 268.733V263.689C383.993 262.802 383.553 262.665 382.724 262.665Z" fill="white"/>
<path d="M420.026 262.665H392.157C391.328 262.665 391.029 262.802 391.029 263.689V268.733C391.029 269.62 391.328 270.783 392.157 270.783H420.026C420.855 270.783 420.794 269.62 420.794 268.733V263.689C420.794 262.802 420.855 262.665 420.026 262.665Z" fill="white"/>
<path d="M457.328 262.665H429.459C428.63 262.665 427.288 262.802 427.288 263.689V268.733C427.288 269.62 428.63 270.783 429.459 270.783H457.328C458.157 270.783 459.219 269.62 459.219 268.733V263.689C459.219 262.802 458.157 262.665 457.328 262.665Z" fill="white"/>
<path d="M382.724 281.606H354.855C354.026 281.606 354.228 282.751 354.228 283.637V288.682C354.228 289.568 354.026 290.266 354.855 290.266H382.724C383.553 290.266 383.993 289.568 383.993 288.682V283.637C383.993 282.751 383.553 281.606 382.724 281.606Z" fill="white"/>
<path d="M420.026 281.606H392.157C391.328 281.606 391.029 282.751 391.029 283.637V288.682C391.029 289.568 391.328 290.266 392.157 290.266H420.026C420.855 290.266 420.794 289.568 420.794 288.682V283.637C420.794 282.751 420.855 281.606 420.026 281.606Z" fill="white"/>
<path d="M457.328 281.606H429.459C428.63 281.606 427.288 282.751 427.288 283.637V288.682C427.288 289.568 428.63 290.266 429.459 290.266H457.328C458.157 290.266 459.219 289.568 459.219 288.682V283.637C459.219 282.751 458.157 281.606 457.328 281.606Z" fill="white"/>
<path d="M382.724 302.172H354.855C354.026 302.172 354.228 302.699 354.228 303.586V308.63C354.228 309.516 354.026 310.29 354.855 310.29H382.724C383.553 310.29 383.993 309.516 383.993 308.63V303.586C383.993 302.699 383.553 302.172 382.724 302.172Z" fill="white"/>
<path d="M420.026 302.172H392.157C391.328 302.172 391.029 302.699 391.029 303.586V308.63C391.029 309.516 391.328 310.29 392.157 310.29H420.026C420.855 310.29 420.794 309.516 420.794 308.63V303.586C420.794 302.699 420.855 302.172 420.026 302.172Z" fill="white"/>
<path d="M457.328 302.172H429.459C428.63 302.172 427.288 302.699 427.288 303.586V308.63C427.288 309.516 428.63 310.29 429.459 310.29H457.328C458.157 310.29 459.219 309.516 459.219 308.63V303.586C459.219 302.699 458.157 302.172 457.328 302.172Z" fill="white"/>
<path d="M382.724 321.113H354.855C354.026 321.113 354.228 322.647 354.228 323.534V328.578C354.228 329.465 354.026 330.855 354.855 330.855H382.724C383.553 330.855 383.993 329.465 383.993 328.578V323.534C383.993 322.647 383.553 321.113 382.724 321.113Z" fill="white"/>
<path d="M420.026 321.113H392.157C391.328 321.113 391.029 322.647 391.029 323.534V328.578C391.029 329.465 391.328 330.855 392.157 330.855H420.026C420.855 330.855 420.794 329.465 420.794 328.578V323.534C420.794 322.647 420.855 321.113 420.026 321.113Z" fill="white"/>
<path d="M457.328 321.113H429.459C428.63 321.113 427.288 322.647 427.288 323.534V328.578C427.288 329.465 428.63 330.855 429.459 330.855H457.328C458.157 330.855 459.219 329.465 459.219 328.578V323.534C459.219 322.647 458.157 321.113 457.328 321.113Z" fill="white"/>
<path d="M382.724 341.679H354.855C354.026 341.679 354.228 342.596 354.228 343.482V348.527C354.228 349.413 354.026 351.42 354.855 351.42H382.724C383.553 351.42 383.993 349.413 383.993 348.527V343.482C383.993 342.596 383.553 341.679 382.724 341.679Z" fill="white"/>
<path d="M420.026 341.679H392.157C391.328 341.679 391.029 342.596 391.029 343.482V348.527C391.029 349.413 391.328 351.42 392.157 351.42H420.026C420.855 351.42 420.794 349.413 420.794 348.527V343.482C420.794 342.596 420.855 341.679 420.026 341.679Z" fill="white"/>
<path d="M457.328 341.679H429.459C428.63 341.679 427.288 342.596 427.288 343.482V348.527C427.288 349.413 428.63 351.42 429.459 351.42H457.328C458.157 351.42 459.219 349.413 459.219 348.527V343.482C459.219 342.596 458.157 341.679 457.328 341.679Z" fill="white"/>
<path d="M382.724 361.162H354.855C354.026 361.162 354.228 362.545 354.228 363.431V368.475C354.228 369.362 354.026 370.362 354.855 370.362H382.724C383.553 370.362 383.993 369.362 383.993 368.475V363.431C383.993 362.545 383.553 361.162 382.724 361.162Z" fill="white"/>
<path d="M420.026 361.162H392.157C391.328 361.162 391.029 362.545 391.029 363.431V368.475C391.029 369.362 391.328 370.362 392.157 370.362H420.026C420.855 370.362 420.794 369.362 420.794 368.475V363.431C420.794 362.545 420.855 361.162 420.026 361.162Z" fill="white"/>
<path d="M457.328 361.162H429.459C428.63 361.162 427.288 362.545 427.288 363.431V368.475C427.288 369.362 428.63 370.362 429.459 370.362H457.328C458.157 370.362 459.219 369.362 459.219 368.475V363.431C459.219 362.545 458.157 361.162 457.328 361.162Z" fill="white"/>
<path d="M382.724 382.269H354.855C354.026 382.269 354.228 382.493 354.228 383.379V388.424C354.228 389.31 354.026 390.928 354.855 390.928H382.724C383.553 390.928 383.993 389.31 383.993 388.424V383.379C383.993 382.493 383.553 382.269 382.724 382.269Z" fill="white"/>
<path d="M420.026 382.269H392.157C391.328 382.269 391.029 382.493 391.029 383.379V388.424C391.029 389.31 391.328 390.928 392.157 390.928H420.026C420.855 390.928 420.794 389.31 420.794 388.424V383.379C420.794 382.493 420.855 382.269 420.026 382.269Z" fill="white"/>
<path d="M457.328 382.269H429.459C428.63 382.269 427.288 382.493 427.288 383.379V388.424C427.288 389.31 428.63 390.928 429.459 390.928H457.328C458.157 390.928 459.219 389.31 459.219 388.424V383.379C459.219 382.493 458.157 382.269 457.328 382.269Z" fill="white"/>
<path d="M382.724 402.834H354.855C354.026 402.834 354.228 402.441 354.228 403.327V408.372C354.228 409.258 354.026 409.869 354.855 409.869H382.724C383.553 409.869 383.993 409.258 383.993 408.372V403.327C383.993 402.441 383.553 402.834 382.724 402.834Z" fill="white"/>
<path d="M420.026 402.834H392.157C391.328 402.834 391.029 402.441 391.029 403.327V408.372C391.029 409.258 391.328 409.869 392.157 409.869H420.026C420.855 409.869 420.794 409.258 420.794 408.372V403.327C420.794 402.441 420.855 402.834 420.026 402.834Z" fill="white"/>
<path d="M457.328 402.834H429.459C428.63 402.834 427.288 402.441 427.288 403.327V408.372C427.288 409.258 428.63 409.869 429.459 409.869H457.328C458.157 409.869 459.219 409.258 459.219 408.372V403.327C459.219 402.441 458.157 402.834 457.328 402.834Z" fill="white"/>
</g>
<path d="M130.536 322.873C110.88 327.703 84.6145 307.19 75.4259 283.929C65.9701 259.99 80.918 249.137 79.3271 215.416C77.5199 177.11 57.3386 172.206 41.9023 121.14C38.4196 109.618 18.2652 42.9447 39.0456 29.3754C58.2593 16.8292 115.125 47.9466 126.709 90.4457C134.969 120.75 114.126 134.534 123.856 169.825C132.394 200.789 151.265 200.419 159.805 230.281C170.201 266.635 156.345 316.531 130.536 322.873Z" fill="#D8DFEB"/>
<path d="M129.502 332.218C133.045 290.707 119.838 227.48 108.134 181.749C95.4628 132.237 81.7778 91.9972 81.6411 91.5962L80.012 92.1524C80.1487 92.5525 93.8152 132.739 106.47 182.187C118.139 227.786 131.309 290.803 127.786 332.072L129.502 332.218Z" fill="#4D4D4D"/>
<path d="M130.503 435.493C157.273 422.907 168.162 376.376 153.886 360.525C144.24 349.815 129.36 360.057 115.868 348.812C98.643 334.454 112.774 309.318 100.154 275.453C89.4148 246.634 61.9716 218.657 45.0693 223.476C27.3762 228.521 16.4345 270.87 30.2924 297.192C39.3043 314.31 54.1122 315.738 56.696 331.421C59.694 349.62 41.3079 357.111 40.4942 374.602C39.0322 406.021 95.0886 452.143 130.503 435.493Z" fill="#B9F73E"/>
<path d="M115.868 446.925C116.024 446.931 116.184 446.903 116.337 446.836C116.878 446.6 117.126 445.971 116.89 445.43C85.0682 372.405 78.2752 288.92 78.2101 288.086C78.1645 287.497 77.6497 287.057 77.0621 287.103C76.474 287.149 76.0338 287.663 76.0797 288.251C76.1448 289.09 82.9672 372.932 114.931 446.283C115.1 446.671 115.471 446.908 115.868 446.925Z" fill="#4D4D4D"/>
<path d="M133.122 429.336C133.285 429.343 133.448 429.272 133.552 429.132C151.415 405.22 157.94 386.446 152.947 373.332C148.508 361.673 136.204 359.034 136.08 359.009C135.803 358.954 135.534 359.131 135.477 359.407C135.421 359.682 135.599 359.953 135.875 360.009C135.993 360.034 147.766 362.574 151.997 373.709C156.848 386.474 150.368 404.915 132.735 428.52C132.566 428.746 132.612 429.066 132.838 429.235C132.923 429.299 133.023 429.332 133.122 429.336Z" fill="white"/>
<path d="M155.623 51.9573L373.326 58.2721C394.134 58.8756 410.763 71.2837 411.398 86.679L425.286 423.461C425.941 439.345 409.371 452.724 387.922 453.631L145.497 463.877C122.395 464.854 103.077 451.048 103.601 433.937L114.436 80.5933C114.938 64.2131 133.489 51.3153 155.623 51.9573Z" fill="#0E15D7"/>
<path d="M164.413 66.7342L366.498 72.5959C385.812 73.1562 401.249 84.6741 401.838 98.9648L414.73 411.586C415.338 426.33 399.957 438.749 380.046 439.591L155.013 449.102C133.568 450.009 115.637 437.194 116.123 421.31L126.181 93.3159C126.647 78.1107 143.867 66.1382 164.413 66.7342Z" fill="#5056FF"/>
<path opacity="0.2" d="M170.842 76.6938L358.1 82.1255C375.998 82.6447 390.302 93.3176 390.848 106.56L402.793 396.244C403.357 409.906 389.104 421.415 370.655 422.194L162.132 431.008C142.26 431.848 125.644 419.973 126.095 405.254L135.415 101.325C135.847 87.2356 151.804 76.1415 170.842 76.6938Z" fill="white"/>
<path d="M435.893 462.774H155.429C152.134 462.774 149.463 460.102 149.463 456.807V46.772C149.463 43.4771 152.134 40.8059 155.429 40.8059H435.893C439.188 40.8059 441.859 43.4771 441.859 46.772V456.807C441.859 460.102 439.188 462.774 435.893 462.774Z" fill="#0E15D7"/>
<path d="M425.511 452.923H166.099C162.804 452.923 160.133 450.252 160.133 446.957V57.9198C160.133 54.6248 162.804 51.9536 166.099 51.9536H425.511C428.806 51.9536 431.478 54.6248 431.478 57.9198V446.957C431.478 450.252 428.806 452.923 425.511 452.923Z" fill="#5056FF"/>
<path d="M154.076 164.125C153.628 164.125 153.265 163.761 153.265 163.313V68.8653C153.265 56.6467 163.205 46.7065 175.424 46.7065H246.929C247.377 46.7065 247.741 47.0702 247.741 47.5183C247.741 47.9665 247.377 48.33 246.929 48.33H175.424C164.101 48.33 154.888 57.542 154.888 68.8653V163.313C154.888 163.761 154.524 164.125 154.076 164.125Z" fill="#D8DFEB"/>
<path d="M154.076 244.079C153.628 244.079 153.265 243.715 153.265 243.267V178.051C153.265 177.602 153.628 177.239 154.076 177.239C154.524 177.239 154.888 177.602 154.888 178.051V243.267C154.888 243.715 154.524 244.079 154.076 244.079Z" fill="#D8DFEB"/>
<g opacity="0.7">
<path d="M304.683 99.7979H178.182C177.23 99.7979 176.459 99.0261 176.459 98.0743V71.5995C176.459 70.6476 177.23 69.876 178.182 69.876H304.683C305.634 69.876 306.406 70.6476 306.406 71.5995V98.0743C306.406 99.0263 305.634 99.7979 304.683 99.7979Z" fill="white"/>
<path d="M235.14 163.312H185.096C184.5 163.312 184.016 162.829 184.016 162.232V119.043C184.016 118.447 184.5 117.963 185.096 117.963H235.14C235.737 117.963 236.22 118.447 236.22 119.043V162.232C236.22 162.828 235.737 163.312 235.14 163.312Z" fill="white"/>
<path d="M408.706 132.038H250.793C250.533 132.038 250.322 131.827 250.322 131.567V118.434C250.322 118.174 250.533 117.963 250.793 117.963H408.706C408.966 117.963 409.177 118.174 409.177 118.434V131.567C409.177 131.827 408.966 132.038 408.706 132.038Z" fill="white"/>
<path d="M372.411 152.801H251.33C250.773 152.801 250.322 152.349 250.322 151.792V139.734C250.322 139.177 250.773 138.726 251.33 138.726H372.411C372.968 138.726 373.42 139.177 373.42 139.734V151.792C373.42 152.349 372.968 152.801 372.411 152.801Z" fill="white"/>
<path d="M234.349 232.563H184.305C183.708 232.563 183.225 232.08 183.225 231.483V188.294C183.225 187.698 183.708 187.215 184.305 187.215H234.349C234.945 187.215 235.428 187.698 235.428 188.294V231.483C235.428 232.08 234.945 232.563 234.349 232.563Z" fill="white"/>
<path d="M407.915 201.29H250.001C249.741 201.29 249.53 201.079 249.53 200.819V187.686C249.53 187.425 249.741 187.215 250.001 187.215H407.915C408.175 187.215 408.386 187.425 408.386 187.686V200.819C408.386 201.079 408.175 201.29 407.915 201.29Z" fill="white"/>
<path d="M371.62 222.052H250.539C249.982 222.052 249.53 221.6 249.53 221.044V208.985C249.53 208.428 249.982 207.977 250.539 207.977H371.62C372.177 207.977 372.628 208.428 372.628 208.985V221.044C372.628 221.6 372.177 222.052 371.62 222.052Z" fill="white"/>
<path d="M234.349 296.302H184.305C183.708 296.302 183.225 295.819 183.225 295.222V252.033C183.225 251.437 183.708 250.954 184.305 250.954H234.349C234.945 250.954 235.428 251.437 235.428 252.033V295.222C235.428 295.819 234.945 296.302 234.349 296.302Z" fill="white"/>
<path d="M407.915 265.029H250.001C249.741 265.029 249.53 264.818 249.53 264.558V251.425C249.53 251.164 249.741 250.954 250.001 250.954H407.915C408.175 250.954 408.386 251.164 408.386 251.425V264.558C408.386 264.818 408.175 265.029 407.915 265.029Z" fill="white"/>
<path d="M371.62 285.791H250.539C249.982 285.791 249.53 285.34 249.53 284.783V272.725C249.53 272.168 249.982 271.716 250.539 271.716H371.62C372.177 271.716 372.628 272.168 372.628 272.725V284.783C372.628 285.34 372.177 285.791 371.62 285.791Z" fill="white"/>
<path d="M234.349 360.381H184.305C183.708 360.381 183.225 359.897 183.225 359.301V316.112C183.225 315.516 183.708 315.032 184.305 315.032H234.349C234.945 315.032 235.428 315.516 235.428 316.112V359.301C235.428 359.898 234.945 360.381 234.349 360.381Z" fill="white"/>
<path d="M407.915 329.107H250.001C249.741 329.107 249.53 328.897 249.53 328.636V315.503C249.53 315.243 249.741 315.032 250.001 315.032H407.915C408.175 315.032 408.386 315.243 408.386 315.503V328.636C408.386 328.897 408.175 329.107 407.915 329.107Z" fill="white"/>
<path d="M371.62 349.87H250.539C249.982 349.87 249.53 349.419 249.53 348.862V336.803C249.53 336.246 249.982 335.795 250.539 335.795H371.62C372.177 335.795 372.628 336.246 372.628 336.803V348.862C372.628 349.419 372.177 349.87 371.62 349.87Z" fill="white"/>
<path d="M234.349 424.121H184.305C183.708 424.121 183.225 423.637 183.225 423.041V379.852C183.225 379.255 183.708 378.772 184.305 378.772H234.349C234.945 378.772 235.428 379.256 235.428 379.852V423.041C235.428 423.637 234.945 424.121 234.349 424.121Z" fill="white"/>
<path d="M407.915 392.847H250.001C249.741 392.847 249.53 392.636 249.53 392.376V379.243C249.53 378.983 249.741 378.772 250.001 378.772H407.915C408.175 378.772 408.386 378.983 408.386 379.243V392.376C408.386 392.636 408.175 392.847 407.915 392.847Z" fill="white"/>
<path d="M371.62 413.609H250.539C249.982 413.609 249.53 413.158 249.53 412.601V400.543C249.53 399.986 249.982 399.534 250.539 399.534H371.62C372.177 399.534 372.628 399.986 372.628 400.543V412.601C372.628 413.158 372.177 413.609 371.62 413.609Z" fill="white"/>
</g>
<path d="M335.015 209.74C335.015 209.74 336.117 257.662 386.504 266.066L395.55 257.136C395.55 257.136 351.918 242.301 340.56 211.299L342.986 194.858L341.276 183.977L335.015 209.74Z" fill="#FFB27D"/>
<path d="M318.633 201.922C354.336 201.922 383.278 172.979 383.278 137.277C383.278 101.575 354.336 72.6326 318.633 72.6326C282.931 72.6326 253.989 101.575 253.989 137.277C253.989 172.979 282.931 201.922 318.633 201.922Z" fill="white"/>
<path d="M319.111 194.383C350.893 194.383 376.657 168.619 376.657 136.837C376.657 105.056 350.893 79.292 319.111 79.292C287.33 79.292 261.566 105.056 261.566 136.837C261.566 168.619 287.33 194.383 319.111 194.383Z" fill="#B9F73E"/>
<path d="M341.228 175.769C338.389 175.564 329.407 173.909 329.51 161.342L329.814 124.344C329.817 123.874 329.789 123.633 329.29 123.642L298.778 124.191C298.265 124.201 297.843 124.453 297.833 124.93L297.789 126.907C297.779 127.362 298.149 127.731 298.637 127.753C301.555 127.884 310.804 128.757 310.618 134.589C310.394 141.544 310.033 170.188 310.033 170.188C310.033 170.188 309.814 176.473 299.052 177.119C298.535 177.149 298.206 177.564 298.196 178.056L298.142 180.559C298.132 181.059 298.359 181.455 298.885 181.432L341.164 179.587C341.67 179.565 342.348 179.138 342.35 178.648L342.355 176.599C342.357 176.15 341.689 175.802 341.228 175.769Z" fill="white"/>
<path d="M318.763 115.721C326.272 115.614 332.362 109.872 332.411 102.934C332.461 96.0369 326.517 90.494 319.092 90.5159C311.616 90.538 305.412 96.185 305.279 103.167C305.146 110.192 311.204 115.83 318.763 115.721Z" fill="white"/>
<path d="M387.868 372.339C387.868 372.339 413.122 427.38 426.371 450.177C426.371 450.177 429.003 464.522 426.371 469.033L424.128 470.03L434.595 469.718C434.595 469.718 435.525 450.423 434.799 449.345C434.073 448.267 432.62 448.338 432.62 448.338C432.62 448.338 428.132 412.781 415.135 405.193L402.538 361.808L387.868 372.339Z" fill="#FFB27D"/>
<path d="M362.522 368.828C362.522 368.828 376.083 447.776 380.699 463.177L369.778 470.03C369.778 470.03 375.251 469.099 379.309 468.805C383.368 468.511 387.1 463.853 387.1 463.853L385.792 461.766C385.792 461.766 381.7 383.248 382.696 374.332L362.522 368.828Z" fill="#FFB27D"/>
<path d="M306.609 200.322C306.609 200.322 313.63 245.002 360.254 247.308L358.53 269.658C358.53 269.658 313.269 268.967 302.575 208.368C302.297 206.79 301.021 205.565 299.633 204.764L290.087 199.259C286.45 197.161 284.06 193.427 283.678 189.246L283.323 185.36C283.205 184.059 284.366 183.007 285.649 183.253L286.503 183.418C289.223 183.941 291.71 185.305 293.612 187.319L299.552 193.608C301.771 195.958 305.234 196.644 308.182 195.32L310.182 194.421L306.609 200.322Z" fill="#FFB27D"/>
<path d="M353.09 243.658C359.345 245.393 380.537 250.968 393.767 250.74L385.644 296.578L386.291 304.055L359.807 303.936C359.807 303.936 352.352 286.621 346.469 277.989C344.77 275.496 346.035 272.522 346.998 269.663L345.675 268.782C344.329 267.886 343.745 266.203 344.247 264.665L350.697 244.933C351.031 243.939 352.079 243.378 353.09 243.658Z" fill="#B9F73E"/>
<path d="M357.685 300.023L358.206 304.553C358.206 304.553 354.306 337.578 365.532 389.928C365.532 389.928 389.022 394.141 409.006 377.659C409.006 377.659 400.608 320.312 399.069 318.01C391.399 306.546 386.291 304.054 386.291 304.054L386.06 299.106C386.06 299.106 364.687 302.97 357.685 300.023Z" fill="#1A1A1A"/>
<path d="M374.902 232.072L373.649 246.799C373.477 248.825 375.075 250.564 377.107 250.564H388.27L384.555 222.337L374.902 232.072Z" fill="#FFB27D"/>
<path d="M377.286 204.214C376.814 204.636 361.568 214.277 368.06 230.716C368.444 231.688 369.264 232.425 370.277 232.681C372.874 233.337 378.383 234.277 384.48 232.567C392.932 230.198 395.962 214.204 394.963 209.876C393.964 205.548 381.962 200.038 377.286 204.214Z" fill="#FFB27D"/>
<path d="M397.833 216.766C399.687 228.587 401.057 228.111 405.407 233.37C412.458 241.893 422.544 233.107 432.35 241.184C439.429 247.015 442.84 261.933 439.443 273.978C434.738 290.661 415.517 299.164 407.184 294.083C399.22 289.227 401.693 281.174 390.978 275.553C386.429 273.167 382.098 268.216 379.374 264.679C374.605 258.488 376.412 249.948 376.907 245.319C377.983 235.276 381.391 230.293 380.154 225.879C377.749 217.293 369.078 217.123 368.143 211.062C367.292 205.542 375.423 195.081 383.075 196.729C394.914 199.28 397.008 211.499 397.833 216.766Z" fill="#1A1A1A"/>
<path opacity="0.6" d="M435.009 270.001C435.172 270.029 435.339 269.941 435.408 269.778C438.465 262.556 438.729 256.246 436.193 251.025C431.983 242.359 421.352 239.743 421.245 239.717C421.081 239.659 420.852 239.797 420.804 240C420.757 240.202 420.877 240.403 421.074 240.45C421.178 240.475 431.486 243.018 435.54 251.371C437.974 256.384 437.704 262.478 434.738 269.484C434.657 269.675 434.741 269.896 434.927 269.977C434.954 269.988 434.982 269.996 435.009 270.001Z" fill="white"/>
<path opacity="0.72" d="M370.966 211.842C371.127 212.038 371.299 212.238 371.487 212.447C373.342 214.493 376.032 216.269 378.635 217.986C382.748 220.699 386.628 223.261 386.217 226.371C386.207 226.443 386.118 226.46 386.018 226.407C385.997 226.396 385.979 226.384 385.961 226.37C385.891 226.315 385.846 226.238 385.853 226.181C386.236 223.289 382.667 220.935 378.539 218.212C375.897 216.469 373.168 214.667 371.25 212.551C371.075 212.357 370.913 212.169 370.76 211.985C370.829 211.938 370.898 211.89 370.966 211.842Z" fill="white"/>
</g>
</svg>
