<svg width="49" height="34" viewBox="0 0 49 34" fill="none" xmlns="http://www.w3.org/2000/svg">
<path d="M40.6105 16.6545C40.6105 25.2894 33.5263 32.309 24.7632 32.309C16.0001 32.309 8.91589 25.2894 8.91589 16.6545C8.91589 8.01958 16.0001 1 24.7632 1C33.5263 1 40.6105 8.01958 40.6105 16.6545Z" fill="white" stroke="#1A1A1A" stroke-width="2"/>
<path d="M41.787 32.9998H2.31647C1.96363 32.9998 1.62753 32.8611 1.3815 32.6179C1.13587 32.3751 1 32.0482 1 31.7099V3.76568C1 2.73463 2.19927 2.09131 3.08742 2.72009L42.558 30.6643C43.5713 31.3817 43.0909 32.9998 41.787 32.9998Z" fill="white" stroke="#1A1A1A" stroke-width="2"/>
<path d="M46.6835 32.9998H7.21298C5.90909 32.9998 5.42864 31.3817 6.44203 30.6643L45.9126 2.72009C46.8007 2.09131 48 2.73463 48 3.76568V31.7099C48 32.0482 47.8641 32.3751 47.6185 32.6179C47.3725 32.8611 47.0364 32.9998 46.6835 32.9998Z" fill="white" stroke="#1A1A1A" stroke-width="2"/>
</svg>
