<svg width="109" height="79" viewBox="0 0 109 79" fill="none" xmlns="http://www.w3.org/2000/svg" xmlns:xlink="http://www.w3.org/1999/xlink">
<g clip-path="url(#clip0_276_32)">
<path d="M53.8869 73.5506C74.1343 73.5506 90.5481 57.0857 90.5481 36.7753C90.5481 16.4649 74.1343 0 53.8869 0C33.6395 0 17.2258 16.4649 17.2258 36.7753C17.2258 57.0857 33.6395 73.5506 53.8869 73.5506Z" fill="url(#paint0_linear_276_32)"/>
<rect x="17.3199" y="9.94055" width="91.6801" height="69.0594" fill="url(#pattern0_276_32)"/>
<path d="M90.932 75.0761H5.04083C3.70392 75.0761 2.42176 74.5434 1.47643 73.5951C0.531087 72.6468 0 71.3607 0 70.0196V8.3153C0 4.19957 4.64014 1.80792 7.97587 4.20431L93.867 65.9086C97.8513 68.7709 95.8327 75.0761 90.932 75.0761Z" fill="url(#paint1_linear_276_32)"/>
<g opacity="0.75">
<rect x="47.6085" y="9.37169" width="42.1161" height="34.0557" fill="url(#pattern1_276_32)"/>
</g>
<path d="M15.696 75.0761H101.587C102.924 75.0761 104.206 74.5434 105.152 73.5951C106.097 72.6468 106.628 71.3607 106.628 70.0196V8.3153C106.628 4.19957 101.988 1.80792 98.6521 4.20431L12.761 65.9086C8.77668 68.7709 10.7953 75.0761 15.696 75.0761Z" fill="url(#paint2_linear_276_32)"/>
</g>
<defs>
<pattern id="pattern0_276_32" patternContentUnits="objectBoundingBox" width="1" height="1">
<use xlink:href="#image0_276_32" transform="scale(0.000412371 0.000549149)"/>
</pattern>
<pattern id="pattern1_276_32" patternContentUnits="objectBoundingBox" width="1" height="1">
<use xlink:href="#image1_276_32" transform="scale(0.000897666 0.00111359)"/>
</pattern>
<linearGradient id="paint0_linear_276_32" x1="53.6097" y1="48.6387" x2="55.0505" y2="-12.6451" gradientUnits="userSpaceOnUse">
<stop stop-color="white"/>
<stop offset="1" stop-color="#E7E9F1"/>
</linearGradient>
<linearGradient id="paint1_linear_276_32" x1="74.8834" y1="39.0676" x2="-12.6826" y2="39.3763" gradientUnits="userSpaceOnUse">
<stop stop-color="#4F9AE5"/>
<stop offset="0.23548" stop-color="#4F7DE5"/>
<stop offset="0.55556" stop-color="#4F5CE5"/>
<stop offset="0.82196" stop-color="#4F47E5"/>
<stop offset="1" stop-color="#4F40E5"/>
</linearGradient>
<linearGradient id="paint2_linear_276_32" x1="49.6628" y1="39.163" x2="105.959" y2="39.163" gradientUnits="userSpaceOnUse">
<stop stop-color="#B3F187"/>
<stop offset="0.02658" stop-color="#B3F183"/>
<stop offset="0.29577" stop-color="#B3F163"/>
<stop offset="0.55406" stop-color="#B3F14B"/>
<stop offset="0.79469" stop-color="#B3F13D"/>
<stop offset="1" stop-color="#B3F138"/>
</linearGradient>
<clipPath id="clip0_276_32">
<rect width="109" height="79" fill="white"/>
</clipPath>
</defs>
</svg>
