<svg width="493" height="404" viewBox="0 0 493 404" fill="none" xmlns="http://www.w3.org/2000/svg">
<path d="M492.308 75.7519V327.305C492.308 344.422 487.073 359.176 478.369 370.906C476.408 373.55 474.269 376.041 471.972 378.37C460.843 389.666 446.039 397.18 429.851 400.055C428.081 400.055 405.719 405.696 349.277 403.402C324.992 402.418 295.933 400.274 258.647 397.376C253.921 397.008 248.727 396.735 243.157 396.546C240.356 396.448 237.459 396.373 234.479 396.315C216.649 395.972 195.828 396.294 174.495 396.879C169.33 397.017 164.129 397.176 158.935 397.344C155.49 397.453 152.049 397.57 148.622 397.687C143.198 397.873 137.808 398.064 132.487 398.258C122.059 398.638 111.907 399.019 102.339 399.35C88.9356 399.812 76.6803 400.18 66.4153 400.318C65.6601 400.327 64.9166 400.337 64.1853 400.344C64.1829 400.344 64.1829 400.344 64.1804 400.344C28.7358 400.705 0.000238895 367.645 0.000238895 327.305V75.7519C0.000238895 35.417 28.7958 0.345269 64.1804 2.71556C74.6469 3.41766 86.6792 4.78037 99.8527 6.14036C100.277 6.18706 100.706 6.22677 101.133 6.27347C105.14 6.68409 109.248 7.08997 113.444 7.4796C113.871 7.51683 114.297 7.55879 114.726 7.59398C116.614 7.76658 118.518 7.93691 120.443 8.09778C143.716 10.0435 169.462 11.0887 195.763 8.30309C202.645 7.57278 210.234 6.85668 218.368 6.16834C230.412 5.14879 243.648 4.19242 257.543 3.34998C260.929 3.14715 264.353 2.94884 267.806 2.75978C267.806 2.75978 267.806 2.75978 267.811 2.75978C268.003 2.75053 268.197 2.7388 268.391 2.72706C275.182 2.3539 282.088 2.01097 289.063 1.70752C289.794 1.67255 290.526 1.64232 291.259 1.61186H291.262C291.381 1.60261 291.501 1.59787 291.624 1.59313C312.758 0.685493 334.386 0.107022 354.883 0.0136183C382.736 -0.114755 408.503 0.655261 428.122 2.71511C443.413 4.32237 457.498 10.6682 468.552 20.6324C469.782 21.7428 470.976 22.8978 472.129 24.0946C477.709 29.878 482.346 36.6716 485.766 44.3053C487.144 47.3801 488.327 50.5949 489.286 53.931C491.248 60.7229 492.308 68.0343 492.308 75.7519Z" fill="#EEF2F9"/>
<path d="M492.307 75.7519V249.681C487.962 259.654 483.168 266.971 477.949 269.889C449.998 285.511 370.511 311.442 332.078 347.916C315.187 363.945 278.726 381.689 243.158 396.545C240.356 396.449 237.458 396.372 234.48 396.316C216.65 395.973 195.828 396.293 174.496 396.88C169.329 397.018 164.13 397.176 158.934 397.343C155.491 397.454 152.049 397.57 148.623 397.686C143.199 397.873 137.807 398.065 132.488 398.258C128.195 391.67 123.517 384.326 118.713 376.504C100.173 346.317 68.2868 280.883 64.7928 257.426C61.2988 233.969 16.7513 164.561 21.9923 148.884C27.2332 133.206 141.368 96.4435 165.428 63.4328C193.656 24.704 271.642 9.08825 289.064 1.70733C289.795 1.67281 290.527 1.64326 291.26 1.61122H291.263C291.383 1.60377 291.503 1.59904 291.623 1.59407C341.479 -0.544964 394.067 -0.860596 428.122 2.71537C445.115 4.502 460.62 12.1419 472.13 24.0944C477.709 29.8785 482.347 36.673 485.767 44.3053C487.145 47.3808 488.326 50.5947 489.287 53.9315C491.248 60.7236 492.307 68.0332 492.307 75.7519Z" fill="#5056FF"/>
<path d="M416.034 51.2826C419.067 50.7077 420.156 51.4741 420.388 52.6306C420.619 53.7869 419.905 54.8953 416.873 55.4702C411.349 56.5172 408.26 54.9296 408.26 54.9296C408.26 54.9296 410.43 52.345 416.034 51.2826Z" fill="#0E15D7"/>
<path d="M416.564 115.633L258.271 110.458L261.509 20.5377L408.506 13.4639L416.564 115.633Z" fill="#EEF2F9"/>
<path d="M348.312 62.9788L347.921 63.4615L416.387 115.893L416.777 115.41L348.312 62.9788Z" fill="#5056FF"/>
<path d="M318.004 62.7132L258.071 110.231L258.47 110.707L318.403 63.1893L318.004 62.7132Z" fill="#5056FF"/>
<path d="M333.204 73.1313C332.983 73.1374 332.832 73.1033 332.705 73.0744C326.594 71.6903 263.787 23.0868 261.116 21.0183L261.903 20.0568C284.449 37.5181 328.322 70.8199 332.992 71.8776C333.052 71.8916 333.123 71.8972 333.201 71.8949C338.455 71.7487 381.66 35.9259 408.086 13.0052L408.926 13.9226C408.752 14.0735 391.308 29.1939 373.35 43.9526C340.947 70.5832 334.932 73.0832 333.204 73.1313Z" fill="#5056FF"/>
<path d="M360.162 334.593L203.821 359.258L189.151 270.421L331.977 235.861L360.162 334.593Z" fill="white"/>
<path d="M282.75 295.742L282.463 296.289L360.051 334.869L360.338 334.322L282.75 295.742Z" fill="#5056FF"/>
<path d="M252.936 301.189L203.564 359.072L204.049 359.465L253.421 301.581L252.936 301.189Z" fill="#5056FF"/>
<path d="M269.935 308.554C269.719 308.601 269.564 308.596 269.434 308.592C263.164 308.382 191.892 272.494 188.861 270.967L189.441 269.876C215.029 282.772 264.686 307.203 269.478 307.364C269.54 307.366 269.611 307.358 269.687 307.341C274.812 306.211 310.094 262.944 331.473 235.49L332.48 236.232C332.339 236.413 318.225 254.526 303.534 272.381C277.026 304.599 271.621 308.182 269.935 308.554Z" fill="#5056FF"/>
<path d="M352.318 139.282L214.003 214.358L169.065 135.72L291.206 55.8274L352.318 139.282Z" fill="white"/>
<path d="M265.905 128.461L265.827 129.071L352.284 139.583L352.363 138.973L265.905 128.461Z" fill="#5056FF"/>
<path d="M239.824 143.468L213.707 214.267L214.301 214.475L240.418 143.676L239.824 143.468Z" fill="#5056FF"/>
<path d="M258.374 144.752C258.187 144.868 258.04 144.915 257.916 144.954C251.948 146.838 172.368 136.759 168.984 136.329L169.147 135.111C197.721 138.741 252.965 145.225 257.526 143.785C257.586 143.767 257.649 143.736 257.715 143.695C262.137 140.931 280.131 88.5497 290.602 55.6459L291.809 56.0096C291.74 56.2262 284.823 77.9378 277.274 99.5977C263.653 138.681 259.827 143.843 258.374 144.752Z" fill="#5056FF"/>
<path d="M474.853 148.076L336.538 223.153L291.6 144.515L413.741 64.6218L474.853 148.076Z" fill="#B9F73E"/>
<path d="M388.441 137.254L388.363 137.863L474.82 148.375L474.899 147.766L388.441 137.254Z" fill="#1A1A1A"/>
<path d="M362.361 152.266L336.245 223.065L336.839 223.273L362.955 152.474L362.361 152.266Z" fill="#1A1A1A"/>
<path d="M380.908 153.546C380.722 153.663 380.575 153.709 380.45 153.749C374.483 155.633 294.903 145.554 291.519 145.124L291.682 143.906C320.256 147.535 375.5 154.02 380.061 152.58C380.121 152.561 380.184 152.531 380.25 152.489C384.671 149.725 402.666 97.3443 413.137 64.4404L414.344 64.8041C414.275 65.0207 407.358 86.7323 399.809 108.392C386.188 147.475 382.362 152.637 380.908 153.546Z" fill="#1A1A1A"/>
<path d="M195.247 353.235C194.291 356.093 193.073 356.648 191.922 356.283C190.77 355.918 190.121 354.773 191.077 351.914C192.819 346.708 195.745 344.851 195.745 344.851C195.745 344.851 197.014 347.952 195.247 353.235Z" fill="#0E15D7"/>
<path d="M208.427 367.895C208.473 370.901 207.505 371.809 206.294 371.826C205.084 371.844 204.089 370.964 204.043 367.959C203.959 362.484 206.111 359.806 206.111 359.806C206.111 359.806 208.342 362.341 208.427 367.895Z" fill="#0E15D7"/>
<path d="M212.337 383.97L211.929 384.405C205.683 381.285 198.236 378.302 189.602 376.032C189.393 375.978 189.185 375.923 188.975 375.869C185.049 374.861 180.882 373.999 176.475 373.344C175.522 373.2 174.559 373.066 173.583 372.944L173.659 372.38C174.618 372.5 175.566 372.631 176.503 372.771C185.302 374.081 193.147 376.191 200.03 378.685C200.242 378.762 200.452 378.837 200.662 378.915C204.93 380.49 208.824 382.208 212.337 383.97Z" fill="#0E15D7"/>
<path d="M200.686 379.057L200.109 379.145C196.816 358.735 177.249 347.382 177.052 347.27L177.347 346.779C177.546 346.892 197.35 358.375 200.686 379.057Z" fill="#0E15D7"/>
<path d="M187.804 377.833C183.36 381.666 178.029 382.398 177.968 382.406L177.891 381.843C177.959 381.834 184.785 380.889 189.278 375.522L189.731 375.881C189.123 376.607 188.473 377.256 187.804 377.833Z" fill="#0E15D7"/>
<path d="M171.13 370.823C175.296 370.858 176.527 371.823 176.516 373.001C176.506 374.18 175.258 375.124 171.092 375.089C163.503 375.026 159.854 372.862 159.854 372.862C159.854 372.862 163.43 370.759 171.13 370.823Z" fill="#0E15D7"/>
<path d="M177.887 380.018C181.87 378.829 183.343 379.389 183.698 380.515C184.053 381.641 183.156 382.908 179.173 384.097C171.917 386.262 167.768 385.27 167.768 385.27C167.768 385.27 170.526 382.215 177.887 380.018Z" fill="#0E15D7"/>
<path d="M186.1 367.192C188.623 368.927 188.807 370.223 188.108 371.185C187.409 372.147 186.092 372.411 183.569 370.676C178.974 367.515 178.018 364.246 178.018 364.246C178.018 364.246 181.438 363.985 186.1 367.192Z" fill="#0E15D7"/>
<path d="M176.698 344.259C180.112 346.582 180.565 348.055 179.871 349.021C179.177 349.986 177.599 350.078 174.185 347.755C167.966 343.523 166.216 339.73 166.216 339.73C166.216 339.73 170.388 339.965 176.698 344.259Z" fill="#0E15D7"/>
<path d="M427.569 207.877C426.967 210.825 425.825 211.516 424.637 211.286C423.45 211.056 422.666 209.993 423.268 207.045C424.366 201.675 427.046 199.495 427.046 199.495C427.046 199.495 428.683 202.428 427.569 207.877Z" fill="#0E15D7"/>
<path d="M442.437 220.92C442.848 223.9 441.997 224.913 440.797 225.069C439.596 225.226 438.501 224.467 438.091 221.487C437.343 216.061 439.155 213.154 439.155 213.154C439.155 213.154 441.678 215.414 442.437 220.92Z" fill="#0E15D7"/>
<path d="M378.379 212.345C375.413 211.504 374.805 210.337 375.144 209.206C375.483 208.075 376.64 207.408 379.606 208.249C385.009 209.781 387.006 212.57 387.006 212.57C387.006 212.57 383.861 213.9 378.379 212.345Z" fill="#0E15D7"/>
<path d="M282.891 207.271C279.925 206.43 279.317 205.263 279.656 204.132C279.995 203.001 281.152 202.334 284.118 203.175C289.521 204.707 291.519 207.495 291.519 207.495C291.519 207.495 288.373 208.825 282.891 207.271Z" fill="#0E15D7"/>
<path d="M463.822 184.408C466.079 182.356 467.42 182.443 468.247 183.304C469.074 184.164 469.073 185.472 466.816 187.525C462.705 191.264 459.221 191.513 459.221 191.513C459.221 191.513 459.651 188.202 463.822 184.408Z" fill="#0E15D7"/>
<path d="M419.704 272.063C416.754 271.169 416.168 269.992 416.528 268.867C416.888 267.742 418.057 267.096 421.007 267.989C426.38 269.617 428.326 272.44 428.326 272.44C428.326 272.44 425.155 273.714 419.704 272.063Z" fill="#0E15D7"/>
<path d="M432.748 251.857C435.06 249.863 436.399 249.984 437.202 250.866C438.005 251.747 437.969 253.055 435.658 255.049C431.447 258.682 427.957 258.842 427.957 258.842C427.957 258.842 428.476 255.543 432.748 251.857Z" fill="#0E15D7"/>
<path d="M448.271 236.433L447.919 236.912C441.338 234.532 433.581 232.426 424.731 231.164C424.518 231.134 424.304 231.103 424.089 231.074C420.068 230.524 415.826 230.147 411.371 230.003C410.406 229.969 409.434 229.947 408.45 229.938L408.456 229.369C409.423 229.378 410.381 229.4 411.328 229.431C420.225 229.72 428.272 230.914 435.409 232.6C435.628 232.652 435.847 232.702 436.064 232.756C440.494 233.829 444.569 235.088 448.271 236.433Z" fill="#0E15D7"/>
<path d="M436.106 232.893L435.543 233.047C429.795 213.159 408.987 204.134 408.777 204.045L409.011 203.524C409.223 203.613 430.281 212.74 436.106 232.893Z" fill="#0E15D7"/>
<path d="M423.165 233.159C419.218 237.476 414.013 238.816 413.953 238.83L413.808 238.279C413.874 238.263 420.538 236.54 424.348 230.695L424.842 230.999C424.326 231.79 423.759 232.508 423.165 233.159Z" fill="#0E15D7"/>
<path d="M405.756 228.114C409.897 227.67 411.237 228.487 411.369 229.658C411.502 230.829 410.378 231.911 406.237 232.355C398.693 233.164 394.807 231.434 394.807 231.434C394.807 231.434 398.103 228.935 405.756 228.114Z" fill="#0E15D7"/>
<path d="M413.582 236.468C417.393 234.83 418.923 235.216 419.413 236.293C419.902 237.371 419.165 238.732 415.355 240.37C408.413 243.355 404.171 242.846 404.171 242.846C404.171 242.846 406.539 239.496 413.582 236.468Z" fill="#0E15D7"/>
<path d="M420.181 222.788C422.897 224.221 423.237 225.487 422.659 226.522C422.082 227.558 420.806 227.971 418.091 226.538C413.144 223.927 411.798 220.791 411.798 220.791C411.798 220.791 415.162 220.139 420.181 222.788Z" fill="#0E15D7"/>
<path d="M408.06 201.096C411.733 203.01 412.361 204.421 411.79 205.46C411.218 206.498 409.662 206.771 405.989 204.856C399.3 201.369 397.102 197.803 397.102 197.803C397.102 197.803 401.273 197.558 408.06 201.096Z" fill="#0E15D7"/>
<path d="M188.236 107.132L187.767 106.759C190.634 100.523 193.296 93.1279 195.163 84.6173C195.207 84.412 195.252 84.2065 195.296 83.9991C196.121 80.1308 196.782 76.0361 197.218 71.7199C197.315 70.7854 197.4 69.843 197.474 68.8889L198.057 68.9316C197.984 69.8699 197.901 70.7983 197.807 71.7159C196.935 80.3349 195.19 88.0705 192.999 94.8915C192.932 95.1011 192.866 95.3098 192.797 95.5176C191.41 99.7487 189.855 103.624 188.236 107.132Z" fill="#0E15D7"/>
<path d="M192.653 95.5487L192.532 94.9924C213.302 90.6983 223.904 71.0792 224.009 70.8813L224.529 71.1419C224.423 71.3418 213.7 91.1976 192.653 95.5487Z" fill="#0E15D7"/>
<path d="M193.219 82.9673C189.046 78.8553 188.009 73.7149 187.997 73.6558L188.572 73.5507C188.584 73.6163 189.92 80.1977 195.669 84.2747L195.325 84.7345C194.547 84.1831 193.847 83.5864 193.219 82.9673Z" fill="#0E15D7"/>
<path d="M199.519 66.3911C199.706 70.4404 198.781 71.688 197.572 71.741C196.362 71.794 195.326 70.6326 195.138 66.5833C194.796 59.2067 196.822 55.5454 196.822 55.5454C196.822 55.5454 199.172 58.907 199.519 66.3911Z" fill="#0E15D7"/>
<path d="M190.444 73.4494C191.878 77.2553 191.383 78.7161 190.246 79.1215C189.109 79.527 187.761 78.7236 186.327 74.9177C183.715 67.9846 184.511 63.8999 184.511 63.8999C184.511 63.8999 187.794 66.4155 190.444 73.4494Z" fill="#0E15D7"/>
<path d="M204.048 80.7411C202.403 83.2851 201.082 83.5331 200.057 82.9056C199.033 82.2782 198.691 81.0127 200.337 78.4687C203.334 73.8346 206.639 72.731 206.639 72.731C206.639 72.731 207.089 76.0393 204.048 80.7411Z" fill="#0E15D7"/>
<path d="M227.081 70.3759C224.879 73.8177 223.391 74.3368 222.363 73.7143C221.335 73.0919 221.157 71.5636 223.357 68.1221C227.367 61.8525 231.166 59.9495 231.166 59.9495C231.166 59.9495 231.148 64.0152 227.081 70.3759Z" fill="#0E15D7"/>
<path d="M84.2022 279.962C85.4105 279.52 88.3265 280.298 89.1634 281.255C96.5118 289.654 146.021 346.984 138.419 355.422C137.843 356.062 136.937 355.914 135.661 355.967C112.642 356.921 71.9014 284.461 84.2022 279.962Z" fill="#1A1A1A"/>
<path d="M138.419 355.422C138.419 355.422 134.252 360.865 127.313 369.476C125.121 372.196 122.651 375.232 119.949 378.512C115.75 383.607 110.988 389.292 105.83 395.302C104.684 396.637 103.519 397.985 102.339 399.35C88.9354 399.812 76.6801 400.18 66.4151 400.318C65.6598 400.328 64.9164 400.337 64.185 400.344C64.1827 400.344 64.1827 400.344 64.1802 400.344C28.7355 400.706 0 367.645 0 327.305V302.9C5.9418 301.167 12.4399 299.328 19.1058 297.476C28.5581 294.849 38.3508 292.194 47.3811 289.772C53.7929 288.053 59.8187 286.453 65.0676 285.062C67.8154 284.334 70.3499 283.665 72.6159 283.067C79.548 281.234 83.9529 280.072 84.2022 279.962C84.2861 279.962 83.9072 291.049 90.3789 304.501C95.865 315.911 106.008 333.85 116.901 345.232C121.958 350.521 127.181 354.391 132.171 355.542C132.204 355.551 132.235 355.558 132.269 355.565C133.923 355.936 135.549 356.006 137.139 355.726C137.571 355.651 137.997 355.551 138.419 355.422Z" fill="#B9F73E"/>
<path d="M135.542 234.78C135.542 234.78 149.034 199.684 153.306 198.576C161.544 196.441 155.052 214.226 155.052 214.226L135.542 234.78Z" fill="#FFB27D"/>
<path d="M89.2099 281.592C99.1515 272.678 105.578 265.885 112.298 259.7C128.871 244.446 165.651 220.668 183.851 228.972C202.051 237.277 214.824 267.532 206.966 272.441C199.108 277.35 177.921 254.157 170.895 254.709C163.869 255.261 151.527 289.311 155.837 292.044C160.148 294.776 188.597 277.26 194.467 288.261C194.467 288.261 197.771 294.443 181.688 303.886C172.976 309 162.292 321.73 145.221 328.737C138.505 331.494 128.924 335.743 124.036 336.319C115.67 337.305 83.7623 286.477 89.2099 281.592Z" fill="#FFB27D"/>
<path d="M118.084 254.709C118.084 254.709 145.337 218.732 164.629 212.489C183.92 206.246 198.265 204.889 200.25 212.952C202.235 221.014 168.123 237.615 168.123 237.615L118.084 254.709Z" fill="#FFB27D"/>
<path d="M101.668 270.154C111.903 256.817 173.927 190.549 179.913 191.571C191.508 193.551 170.269 219.288 170.269 219.288L101.668 270.154Z" fill="#FFB27D"/>
<path d="M155.838 292.044C155.838 292.044 185.785 279.851 194.349 284.778C202.913 289.704 183.439 302.772 162.417 318.191C141.395 333.61 138.483 296.047 155.838 292.044Z" fill="#FFB27D"/>
<path d="M153.348 236.244C153.269 236.244 153.189 236.221 153.119 236.174C152.935 236.051 152.888 235.806 153.015 235.627C157.209 229.698 162.243 226.184 167.977 225.184C176.679 223.666 183.785 228.446 184.083 228.651C184.266 228.776 184.31 229.021 184.181 229.199C184.053 229.376 183.801 229.419 183.618 229.294C183.548 229.246 176.477 224.496 168.11 225.96C162.6 226.923 157.745 230.326 153.68 236.073C153.602 236.184 153.476 236.244 153.348 236.244Z" fill="#5056FF"/>
<path d="M145.51 231.404C145.43 231.404 145.35 231.381 145.279 231.334C145.096 231.209 145.051 230.964 145.179 230.786C145.247 230.689 152.136 221.104 157.375 216.392C159.603 214.388 163.71 212.444 169.583 210.613C173.935 209.256 177.692 208.47 177.729 208.462C177.947 208.416 178.162 208.551 178.209 208.764C178.256 208.977 178.116 209.186 177.898 209.231C177.75 209.262 163.049 212.36 157.923 216.97C152.748 221.624 145.91 231.14 145.842 231.236C145.763 231.346 145.638 231.404 145.51 231.404Z" fill="#5056FF"/>
<path d="M127.265 369.583C117.364 365.403 104.194 359.133 97.6809 353.003C91.4745 347.163 86.7538 336.755 82.1883 326.69C79.1476 319.986 76.0035 313.054 72.4445 307.514C67.2072 299.362 65.4771 290.811 64.9479 285.073L65.1868 285.052C65.7134 290.764 67.4356 299.277 72.6479 307.39C76.2159 312.944 79.3635 319.884 82.4076 326.595C86.9637 336.64 91.6749 347.026 97.8476 352.835C100.779 355.594 108.511 361.411 127.36 369.369L127.265 369.583Z" fill="#4D4D4D"/>
<path d="M66.3446 400.413C51.859 390.155 42.1463 380.201 37.4757 370.824C29.4783 354.767 27.9497 346.204 26.7214 339.323C25.9659 335.09 25.3693 331.747 23.4481 327.822C20.4958 321.788 19.392 307.991 18.9862 297.48L19.2257 297.471C19.6308 307.961 20.7297 321.723 23.6647 327.722C25.6 331.676 26.1992 335.033 26.9577 339.282C28.1834 346.149 29.7087 354.695 37.6916 370.723C42.3446 380.064 52.0322 389.99 66.4855 400.224L66.3446 400.413Z" fill="#4D4D4D"/>
<path d="M105.744 395.383C94.0491 383.555 73.3083 364.858 67.5274 360.615C61.4105 356.125 56.9667 342.768 53.9425 319.782C52.6504 309.976 49.2044 296.79 47.2654 289.803L47.4968 289.742C49.4374 296.735 52.8865 309.933 54.1804 319.753C54.9892 325.901 56.3281 335.02 58.6059 343.194C61.065 352.02 64.1155 357.818 67.6721 360.429C73.4592 364.676 94.2159 383.387 105.917 395.221L105.744 395.383Z" fill="#4D4D4D"/>
<path d="M454.873 364.733C454.873 364.733 454.87 364.735 454.87 364.738C454.719 364.931 449.818 371.45 443.263 387.86C441.687 391.805 436.695 395.9 429.851 400.055H429.849C429.64 400.092 429.429 400.129 429.221 400.164C436.28 395.932 441.445 391.768 443.04 387.776C448.353 374.478 452.976 366.795 454.681 364.593L454.755 364.647L454.772 364.661L454.873 364.733Z" fill="#1A1A1A"/>
<path d="M463.987 246.257C463.987 245.482 464.632 244.854 465.429 244.854C466.225 244.854 466.871 245.482 466.871 246.257C466.871 247.031 466.225 247.659 465.429 247.659C464.632 247.659 463.987 247.032 463.987 246.257Z" fill="#0E15D7"/>
<path d="M449.211 200.532C449.211 199.757 449.857 199.129 450.653 199.129C451.449 199.129 452.095 199.757 452.095 200.532C452.095 201.307 451.449 201.935 450.653 201.935C449.857 201.935 449.211 201.307 449.211 200.532Z" fill="#0E15D7"/>
<path d="M469.997 220.756C469.997 219.981 470.643 219.353 471.439 219.353C472.236 219.353 472.881 219.981 472.881 220.756C472.881 221.531 472.236 222.159 471.439 222.159C470.643 222.159 469.997 221.531 469.997 220.756Z" fill="#0E15D7"/>
<path d="M316.791 209.909C316.791 209.134 317.437 208.506 318.233 208.506C319.029 208.506 319.675 209.134 319.675 209.909C319.675 210.684 319.029 211.312 318.233 211.312C317.437 211.312 316.791 210.684 316.791 209.909Z" fill="#0E15D7"/>
<path d="M240.344 227.569C242.601 225.516 243.943 225.603 244.77 226.464C245.596 227.325 245.596 228.633 243.339 230.685C239.227 234.424 235.743 234.673 235.743 234.673C235.743 234.673 236.173 231.362 240.344 227.569Z" fill="#0E15D7"/>
<path d="M474.198 84.3792C475.116 87.2492 474.23 88.4537 472.801 88.8865C471.372 89.3192 469.941 88.8163 469.023 85.9465C467.35 80.7184 469.129 77.408 469.129 77.408C469.129 77.408 472.501 79.075 474.198 84.3792Z" fill="#0E15D7"/>
<path d="M454.217 40.9352C457.306 40.8712 458.245 41.807 458.271 42.9849C458.297 44.1628 457.399 45.1366 454.311 45.2007C448.684 45.3173 445.918 43.241 445.918 43.241C445.918 43.241 448.509 41.0535 454.217 40.9352Z" fill="#0E15D7"/>
<path d="M98.2121 254.842C97.5316 257.774 96.3714 258.435 95.1905 258.176C94.0095 257.916 93.2545 256.834 93.935 253.902C95.1749 248.561 97.9128 246.45 97.9128 246.45C97.9128 246.45 99.4701 249.423 98.2121 254.842Z" fill="#0E15D7"/>
<path d="M144.307 170.824C143.971 167.836 144.846 166.843 146.05 166.714C147.253 166.586 148.329 167.37 148.666 170.358C149.28 175.801 147.398 178.664 147.398 178.664C147.398 178.664 144.93 176.346 144.307 170.824Z" fill="#0E15D7"/>
<path d="M235.902 366.465C235.902 365.69 236.548 365.062 237.344 365.062C238.14 365.062 238.786 365.69 238.786 366.465C238.786 367.24 238.14 367.868 237.344 367.868C236.548 367.868 235.902 367.24 235.902 366.465Z" fill="#0E15D7"/>
<path d="M187.334 326.224C187.334 325.45 187.98 324.822 188.776 324.822C189.572 324.822 190.218 325.45 190.218 326.224C190.218 326.999 189.572 327.627 188.776 327.627C187.98 327.627 187.334 326.999 187.334 326.224Z" fill="#0E15D7"/>
<path d="M165.104 355.726C165.104 354.951 165.75 354.323 166.546 354.323C167.343 354.323 167.988 354.951 167.988 355.726C167.988 356.5 167.343 357.128 166.546 357.128C165.75 357.128 165.104 356.5 165.104 355.726Z" fill="#0E15D7"/>
<path d="M148.959 385.272C149.755 385.272 150.4 384.644 150.4 383.87C150.4 383.095 149.755 382.467 148.959 382.467C148.162 382.467 147.517 383.095 147.517 383.87C147.517 384.644 148.162 385.272 148.959 385.272Z" fill="#0E15D7"/>
<path d="M205.937 229.369C205.937 228.595 206.582 227.967 207.379 227.967C208.175 227.967 208.821 228.595 208.821 229.369C208.821 230.144 208.175 230.772 207.379 230.772C206.582 230.772 205.937 230.144 205.937 229.369Z" fill="#0E15D7"/>
<path d="M76.6059 196.919C76.6059 196.145 77.2514 195.516 78.0477 195.516C78.844 195.516 79.4896 196.145 79.4896 196.919C79.4896 197.694 78.844 198.322 78.0477 198.322C77.2517 198.322 76.6059 197.694 76.6059 196.919Z" fill="#0E15D7"/>
<path d="M419.324 32.7844C419.324 32.0097 419.97 31.3816 420.766 31.3816C421.563 31.3816 422.208 32.0097 422.208 32.7844C422.208 33.5592 421.563 34.1873 420.766 34.1873C419.97 34.1873 419.324 33.5592 419.324 32.7844Z" fill="#0E15D7"/>
<path d="M444.476 26.3606C444.476 25.5859 445.122 24.9578 445.918 24.9578C446.715 24.9578 447.36 25.5859 447.36 26.3606C447.36 27.1354 446.715 27.7635 445.918 27.7635C445.122 27.7637 444.476 27.1354 444.476 26.3606Z" fill="#0E15D7"/>
<path d="M448.271 70.2918C449.068 70.2918 449.713 69.6637 449.713 68.8889C449.713 68.1142 449.068 67.4861 448.271 67.4861C447.475 67.4861 446.829 68.1142 446.829 68.8889C446.829 69.6637 447.475 70.2918 448.271 70.2918Z" fill="#0E15D7"/>
<path d="M417.883 189.908C417.883 189.133 418.528 188.505 419.324 188.505C420.121 188.505 420.766 189.133 420.766 189.908C420.766 190.683 420.121 191.311 419.324 191.311C418.528 191.311 417.883 190.683 417.883 189.908Z" fill="#0E15D7"/>
<path d="M126.354 210.25C127.15 210.25 127.796 209.621 127.796 208.847C127.796 208.072 127.15 207.444 126.354 207.444C125.558 207.444 124.912 208.072 124.912 208.847C124.912 209.621 125.558 210.25 126.354 210.25Z" fill="#0E15D7"/>
<path d="M166.546 174.681C166.546 173.906 167.192 173.278 167.988 173.278C168.784 173.278 169.43 173.906 169.43 174.681C169.43 175.455 168.784 176.084 167.988 176.084C167.192 176.084 166.546 175.455 166.546 174.681Z" fill="#0E15D7"/>
<path d="M48.7946 175.781C48.7946 175.006 49.4402 174.378 50.2365 174.378C51.0328 174.378 51.6783 175.006 51.6783 175.781C51.6783 176.556 51.0328 177.184 50.2365 177.184C49.4402 177.184 48.7946 176.556 48.7946 175.781Z" fill="#0E15D7"/>
<path d="M73.1886 159.897C73.1886 159.122 73.8342 158.494 74.6305 158.494C75.4268 158.494 76.0723 159.122 76.0723 159.897C76.0723 160.672 75.4268 161.3 74.6305 161.3C73.8342 161.3 73.1886 160.672 73.1886 159.897Z" fill="#0E15D7"/>
<path d="M301.899 229.348C301.899 228.574 302.545 227.946 303.341 227.946C304.137 227.946 304.783 228.574 304.783 229.348C304.783 230.123 304.137 230.751 303.341 230.751C302.545 230.751 301.899 230.123 301.899 229.348Z" fill="#0E15D7"/>
<path d="M107.025 245.046C107.025 244.272 107.67 243.643 108.467 243.643C109.263 243.643 109.909 244.272 109.909 245.046C109.909 245.821 109.263 246.449 108.467 246.449C107.67 246.449 107.025 245.821 107.025 245.046Z" fill="#0E15D7"/>
<path d="M207.042 265.416C206.348 265.416 204.848 265.225 203.104 263.842C200.773 261.992 199.967 257.029 199.934 256.818C199.9 256.603 200.051 256.402 200.272 256.37C200.492 256.336 200.699 256.484 200.733 256.699C200.74 256.747 201.525 261.574 203.615 263.232C205.662 264.856 207.244 264.625 207.31 264.614C207.527 264.579 207.738 264.722 207.776 264.935C207.814 265.148 207.669 265.35 207.45 265.389C207.429 265.392 207.285 265.416 207.042 265.416Z" fill="#5056FF"/>
<path d="M418.602 337.036C418.602 337.036 329.628 387.98 347.823 394.67C368.924 402.428 421.465 357.246 421.038 337.766C420.496 337.39 419.517 337.159 418.602 337.036Z" fill="#1A1A1A"/>
<path d="M471.972 378.37C460.843 389.666 446.039 397.18 429.851 400.055H429.849C429.64 400.092 429.429 400.129 429.221 400.164H429.219C428.852 400.227 428.49 400.286 428.123 400.344C417.258 402.044 406.31 403.106 394.474 403.619C387.736 403.913 380.713 404.032 373.256 403.993C373.054 403.99 372.853 403.99 372.649 403.988C368.669 403.962 364.561 403.89 360.31 403.778C356.74 403.682 353.066 403.556 349.278 403.402C347.024 397 345.715 393.151 345.676 393.032C346.034 393.282 346.441 393.531 346.824 393.737C348.234 394.5 349.798 394.943 351.486 395.113C351.519 395.118 351.553 395.118 351.586 395.12C356.691 395.598 362.919 393.571 369.458 390.151C383.54 382.795 399.085 368.996 408.06 359.916C418.661 349.193 421.038 337.766 421.038 337.766C421.038 337.766 421.97 338.564 422.04 338.625C422.243 338.809 427.761 343.188 436.431 350.077L436.441 350.086C436.47 350.107 436.501 350.133 436.532 350.156C441.659 354.232 447.883 359.178 454.756 364.646L454.772 364.66C454.804 364.686 454.837 364.712 454.871 364.737C460.246 369.017 466.018 373.615 471.972 378.37Z" fill="#B9F73E"/>
<path d="M396.445 290.378C396.445 290.378 387.271 242.297 383.594 239.908C376.504 235.302 376.756 254.175 376.756 254.175L396.445 290.378Z" fill="#FFB27D"/>
<path d="M416.758 338.597C410.302 327.04 406.469 318.595 402.158 310.632C391.525 290.993 366.596 262.272 347.852 255.205C318.24 244.04 294.107 237.8 293.567 245.557C292.631 259.018 337.955 269.883 348.344 287.525C353.242 295.844 355.211 326.355 350.225 327.59C345.24 328.825 324.114 303.319 314.912 311.891C314.912 311.891 309.736 316.707 321.832 330.69C328.383 338.265 334.279 353.666 348.116 365.654C353.56 370.371 361.222 377.398 365.657 379.477C373.25 383.035 420.296 344.93 416.758 338.597Z" fill="#FFB27D"/>
<path d="M398.335 304.092C398.335 304.092 384.458 261.488 368.266 249.526C352.074 237.565 324.577 221.056 320.026 228.065C315.476 235.075 356.632 272.214 356.632 272.214L398.335 304.092Z" fill="#FFB27D"/>
<path d="M408.756 323.862C403.487 308.027 369.386 215.032 357.846 216.637C346.193 218.258 360.674 254.192 360.674 254.192L408.756 323.862Z" fill="#FFB27D"/>
<path d="M350.225 327.59C350.225 327.59 325.917 306.654 316.178 308.631C306.439 310.608 320.543 329.088 335.333 350.278C350.123 371.467 365.326 336.824 350.225 327.59Z" fill="#FFB27D"/>
<path d="M371.028 278.085C370.857 278.085 370.698 277.978 370.643 277.812C365.802 263.143 334.479 250.811 334.163 250.688C333.956 250.608 333.855 250.379 333.938 250.177C334.02 249.975 334.255 249.877 334.463 249.957C334.543 249.989 342.53 253.114 351.019 258.038C362.465 264.677 369.327 271.249 371.413 277.571C371.481 277.778 371.365 277.999 371.152 278.066C371.111 278.079 371.069 278.085 371.028 278.085Z" fill="#5056FF"/>
<path d="M381.303 270.489C381.157 270.489 381.015 270.411 380.943 270.276C380.899 270.193 376.504 261.934 373.128 255.871C369.804 249.9 356.914 242.355 356.785 242.28C356.593 242.168 356.531 241.927 356.645 241.74C356.759 241.554 357.007 241.493 357.2 241.604C357.233 241.623 360.528 243.546 364.198 246.196C369.15 249.771 372.394 252.9 373.839 255.496C377.218 261.566 381.618 269.832 381.661 269.914C381.764 270.107 381.686 270.345 381.488 270.445C381.429 270.475 381.365 270.489 381.303 270.489Z" fill="#5056FF"/>
<path d="M436.539 350.15C436.539 350.15 436.537 350.155 436.532 350.157C436.309 350.484 429.024 361.087 420.831 376.748C415.827 386.318 392.366 396.093 373.256 403.993C373.054 403.99 372.853 403.99 372.649 403.988C391.817 396.067 415.606 386.22 420.618 376.643C428.907 360.797 436.268 350.126 436.34 350.019L436.431 350.077L436.441 350.087L436.539 350.15Z" fill="#4D4D4D"/>
<path d="M306.158 248.083C305.356 248.083 304.455 248.02 303.456 247.893C300.808 247.556 298.386 246.878 298.361 246.871C298.147 246.81 298.023 246.592 298.086 246.384C298.148 246.175 298.373 246.055 298.586 246.116C301.168 246.843 308.212 248.287 309.786 246.257C309.92 246.083 310.174 246.049 310.352 246.179C310.53 246.31 310.566 246.557 310.431 246.73C309.733 247.631 308.3 248.083 306.158 248.083Z" fill="#5056FF"/>
<path d="M331.818 232.329C328.716 232.329 324.625 229.81 324.415 229.68C324.227 229.563 324.172 229.32 324.293 229.137C324.413 228.954 324.663 228.901 324.851 229.017C326.481 230.031 331.174 232.403 333.28 231.222C333.474 231.114 333.721 231.178 333.832 231.366C333.944 231.554 333.877 231.795 333.684 231.904C333.146 232.205 332.506 232.329 331.818 232.329Z" fill="#5056FF"/>
<path d="M364.015 226.283C363.987 226.283 363.958 226.28 363.929 226.274C360.049 225.463 358.669 220.064 358.612 219.834C358.56 219.623 358.693 219.411 358.91 219.36C359.129 219.308 359.346 219.439 359.398 219.649C359.411 219.701 360.716 224.798 364.099 225.505C364.317 225.551 364.456 225.76 364.409 225.972C364.369 226.157 364.201 226.283 364.015 226.283Z" fill="#5056FF"/>
<path d="M186.308 211.826C183.854 211.826 181.944 211.288 181.825 211.254C181.611 211.192 181.489 210.973 181.552 210.765C181.615 210.556 181.841 210.437 182.054 210.499C182.096 210.511 186.303 211.692 190.129 210.502C190.342 210.435 190.569 210.55 190.637 210.756C190.705 210.963 190.588 211.185 190.375 211.251C188.989 211.683 187.576 211.826 186.308 211.826Z" fill="#5056FF"/>
</svg>
